
<svg width="13px" height="13px" viewBox="0 0 13 13" version="1.1" xmlns="http://www.w3.org/2000/svg" xmlns:xlink="http://www.w3.org/1999/xlink">
    <g id="Assets" stroke="none" stroke-width="1" fill="none" fill-rule="evenodd">
        <path d="M11.4991457,2.4219619 L1.05248935,2.4219619 C0.471215534,2.4219619 2.27373675e-13,1.95074636 2.27373675e-13,1.36947254 C2.27373675e-13,0.788198725 0.471215534,0.316983191 1.05248935,0.316983191 L11.4991457,0.316983191 C12.0804195,0.316983191 12.551635,0.788198725 12.551635,1.36947254 C12.551635,1.95074636 12.0804195,2.4219619 11.4991457,2.4219619 Z M9.35504839,7.68440866 L1.05248935,7.68440866 C0.471215534,7.68440866 2.27373675e-13,7.21319312 2.27373675e-13,6.63191931 C2.27373675e-13,6.05064549 0.471215534,5.57942995 1.05248935,5.57942995 L9.35504839,5.57942995 C9.93632221,5.57942995 10.4075377,6.05064549 10.4075377,6.63191931 C10.4075377,7.21319312 9.93632221,7.68440866 9.35504839,7.68440866 Z M5.92449271,12.9468554 L1.05248935,12.9468554 C0.471215534,12.9468554 2.27373675e-13,12.4756399 2.27373675e-13,11.8943661 C2.27373675e-13,11.3130922 0.471215534,10.8418767 1.05248935,10.8418767 L5.92449271,10.8418767 C6.50576653,10.8418767 6.97698207,11.3130922 6.97698207,11.8943661 C6.97698207,12.4756399 6.50576653,12.9468554 5.92449271,12.9468554 Z" id="list"
        fill="#333333" fill-rule="nonzero"></path>
    </g>
</svg>