
<svg width="15px" height="15px" viewBox="0 0 15 15" version="1.1" xmlns="http://www.w3.org/2000/svg" xmlns:xlink="http://www.w3.org/1999/xlink">
    <g id="Assets" stroke="none" stroke-width="1" fill="none" fill-rule="evenodd">
        <path d="M2.18392268,2.63910659 C0.900308526,4.09770074 1.02525534,6.37330314 2.49048509,7.73965198 L7.50311131,12.4140016 C8.99400517,13.8042826 11.327193,13.7446308 12.6835189,12.2901494 C14.0398447,10.835668 13.9365962,8.50400263 12.4457023,7.11372161 L7.4330761,2.43937204 C6.12438511,1.21899795 4.16669444,1.11581797 2.79038933,2.09256313 C3.07265832,2.29232628 3.3239981,2.54094731 3.53342127,2.83372251 C3.71512551,2.85296519 3.89323704,2.92980497 4.03821292,3.06499716 C4.38838909,3.39154173 4.41243996,3.93468345 4.09194252,4.27837488 C3.77144508,4.62206631 3.22794871,4.63596168 2.87777254,4.30941712 C2.54645672,4.00046011 2.50708229,3.4976093 2.77525293,3.15324337 C2.60394616,2.94651913 2.40482276,2.77357966 2.18392268,2.63910659 L2.18392268,2.63910659 Z M1.42483465,1.54949663 C3.28882215,-0.309553717 6.35153039,-0.346711346 8.31967397,1.48861223 L13.3323002,6.1629618 C15.3443475,8.03922624 15.4840067,11.1931568 13.6342787,13.1767473 C11.7845506,15.1603378 8.62856073,15.2410258 6.61651344,13.3647614 L1.60388722,8.69041179 C-0.203632336,7.00487253 -0.500078695,4.28821846 0.799371923,2.31523962 C0.723482465,2.32089603 0.646800684,2.33000045 0.569446679,2.342646 C0.063148847,2.42542441 -0.114283799,1.64359286 0.392014033,1.56081445 C0.743840869,1.50329937 1.09133316,1.50090472 1.42483465,1.54949663 Z" id="Combined-Shape"
        fill="#333333" fill-rule="nonzero"></path>
    </g>
</svg>