
<svg width="13px" height="18px" viewBox="0 0 13 18" version="1.1" xmlns="http://www.w3.org/2000/svg" xmlns:xlink="http://www.w3.org/1999/xlink">
    <g id="Assets" stroke="none" stroke-width="1" fill="none" fill-rule="evenodd">
        <path d="M8.83782126,11.9182769 C8.33211817,12.1797739 7.99379935,12.4170094 8.10521484,13.0438007 C8.16609134,13.3862046 7.9709315,13.5084616 7.64357672,13.4959089 C7.22704778,13.4799807 6.80947465,13.492006 6.3923192,13.492006 C6.02726902,13.4925334 5.66013045,13.4671115 5.29789959,13.499179 C4.869258,13.5371535 4.72484599,13.3424284 4.77653359,12.9491807 C4.84054267,12.4630009 4.64287677,12.2199637 4.19000989,11.9992893 C2.24081317,11.0496088 1.19996071,9.39993057 1.19641045,7.25679402 C1.19108506,4.03085505 3.86651862,2.03286571 6.27557832,1.95090395 C8.84815878,1.86345698 11.6342769,3.90364027 11.680117,7.18949466 C11.70925,9.28410816 10.7285431,10.9403264 8.83782126,11.9182769 M1.74189733,2.76482538 C4.39728237,-0.150671549 9.30342731,0.170424462 11.6138107,3.36566732 C13.8877517,6.51048841 12.9726202,11.0224992 9.63422794,12.884202 C9.23367516,13.107619 9.2985196,13.4513943 9.29695331,13.7947476 C9.29371631,14.5096187 9.29507376,14.5096187 8.59160035,14.5094078 C7.86149999,14.5093023 7.13150404,14.5094078 6.40140368,14.5095132 C5.63663609,14.5095132 4.87134639,14.4933741 4.10720531,14.5164753 C3.73463693,14.5277621 3.52788655,14.4277625 3.59617683,14.0208017 C3.70633928,13.3628925 3.40529818,13.0151088 2.86148201,12.6461226 C-0.459472204,10.3928599 -0.965697397,5.73770609 1.74189733,2.76482538 Z M3.64794796,15.2005659 L9.23762222,15.2005659 C9.26038564,15.7691294 8.95245287,16.1325249 8.35945516,16.1348456 C7.90084521,16.1367443 7.63864813,16.2559422 7.38250737,16.6843164 C6.92964048,17.4416979 5.88356706,17.399082 5.45012218,16.6184938 C5.23219891,16.2259845 4.99005035,16.1404363 4.5923169,16.1439173 C3.96235474,16.1494025 3.64909657,15.8216609 3.64794796,15.2005659 Z M2.58534494,7.28528549 C2.66393427,7.64356991 2.80070286,7.7429699 3.02635316,7.80288532 C3.38075256,7.89697784 3.65627018,7.57199342 3.71432736,7.20005369 C3.98498242,5.46725337 4.62689166,4.8365509 6.3050768,4.5831845 C6.98797264,4.48008332 6.97030862,3.51350668 6.38572856,3.51350668 C5.8011485,3.51350668 6.31529177,3.49535398 6.27730124,3.48772389 C4.40265997,3.44943288 2.75502645,4.91324672 2.58534494,7.28528549 Z" id="Combined-Shape" 
        fill="#333333"></path>
    </g>
</svg>