
<svg width="15px" height="15px" viewBox="0 0 15 15" version="1.1" xmlns="http://www.w3.org/2000/svg" xmlns:xlink="http://www.w3.org/1999/xlink">
    <g id="Assets" stroke="none" stroke-width="1" fill="none" fill-rule="evenodd">
        <path d="M1,1 L1,6 L6,6 L6,1 L1,1 Z M1,0 L6,0 C6.55228475,0 7,0.44771525 7,1 L7,6 C7,6.55228475 6.55228475,7 6,7 L1,7 C0.44771525,7 0,6.55228475 0,6 L0,1 C0,0.44771525 0.44771525,0 1,0 Z M1,8 L6,8 C6.55228475,8 7,8.44771525 7,9 L7,14 C7,14.5522847 6.55228475,15 6,15 L1,15 C0.44771525,15 0,14.5522847 0,14 L0,9 C0,8.44771525 0.44771525,8 1,8 Z M1,9 L1,14 L6,14 L6,9 L1,9 Z M9,0 L14,0 C14.5522847,0 15,0.44771525 15,1 L15,6 C15,6.55228475 14.5522847,7 14,7 L9,7 C8.44771525,7 8,6.55228475 8,6 L8,1 C8,0.44771525 8.44771525,0 9,0 Z M9,1 L9,6 L14,6 L14,1 L9,1 Z M9,8 L14,8 C14.5522847,8 15,8.44771525 15,9 L15,14 C15,14.5522847 14.5522847,15 14,15 L9,15 C8.44771525,15 8,14.5522847 8,14 L8,9 C8,8.44771525 8.44771525,8 9,8 Z M9,9 L9,14 L14,14 L14,9 L9,9 Z" id="Combined-Shape"
        fill="#333333" fill-rule="nonzero"></path>
    </g>
</svg>