<svg width="280" height="280" viewBox="0 0 280 280" fill="none" xmlns="http://www.w3.org/2000/svg">
<path d="M280 0H0V280H280V0Z" fill="white"/>
<path d="M196.093 230.394C201.11 229.437 261.497 220.874 257.04 157.664C252.583 94.4535 247.007 75.4602 223.557 68.5069C200.083 61.5535 143.033 28.6535 98.2566 59.9435C53.48 91.2335 5.17996 119.28 24.3366 169.237C43.5166 219.194 46.6433 235.854 96.67 233.31C146.697 230.767 172.2 234.92 196.093 230.394Z" fill="#F9F9F9"/>
<path d="M121.403 187.481C115.243 187.551 109.083 187.527 102.97 187.201C100.567 187.084 93.5434 186.244 94.57 182.347C95.2234 179.874 100.147 178.311 102.293 177.844C106.727 176.864 111.557 176.981 116.153 176.654C130.27 175.651 144.457 175.114 158.643 175.137C164.99 175.137 171.593 175.184 178.01 175.441C183.843 175.674 191.637 175.464 196.257 177.937C196.42 178.031 196.583 178.124 196.747 178.217C197.657 178.777 198.287 179.571 198.053 180.364C197.867 181.041 197.097 181.601 196.28 182.067C190.89 185.217 183.983 185.871 176.913 186.314C164.43 187.084 151.923 187.271 139.44 187.294C133.467 187.294 127.423 187.434 121.403 187.481Z" fill="#E5E5E5"/>
<path d="M53.5967 187.836C51.7067 187.836 49.8167 187.766 47.9267 187.439C45.2667 186.972 46.27 183.916 46.6433 182.142C47.3667 178.736 48.58 178.922 51.8933 178.339C56.2333 177.569 60.5967 177.242 64.9367 177.359C66.8967 177.406 68.9267 177.499 70.91 177.779C73.8267 178.199 76.65 178.432 79.5433 178.806C79.1933 180.229 78.2833 181.466 77.28 182.516C71.82 188.232 66.5 187.976 59.15 187.812C57.3067 187.766 55.4633 187.836 53.5967 187.836Z" fill="#E5E5E5"/>
<path d="M220.617 171.92C219.8 172.457 218.937 172.947 218.073 173.437C214.2 175.583 210.14 177.683 204.727 178.243C203.77 178.337 202.767 178.103 201.88 178.43C200.853 178.827 199.897 179.55 198.917 180.063C196.98 181.067 194.927 181.93 192.78 182.35C192.08 182.49 191.45 182.747 191.287 181.907C191.193 181.393 191.52 180.833 191.847 180.483C192.593 179.62 193.76 179.2 194.763 178.71C197.027 177.613 199.08 176.727 199.967 174.58C201.343 171.337 203.233 168.56 206.243 166.367C209.043 164.337 212.66 162.773 216.393 161.56C218.33 160.93 220.593 160.137 223.207 160.393C226.847 160.743 228.223 163.427 227.22 165.317C225.82 168.047 223.393 170.147 220.617 171.92Z" fill="#E5E5E5"/>
<path d="M119.047 144.95C117.834 147.377 116.924 149.967 116.41 152.627C115.22 158.763 116.597 164.97 117.834 170.99C118.067 172.157 118.557 173.417 118.627 174.607C118.674 175.213 118.58 175.167 117.927 175.33C117.344 175.47 116.784 175.61 116.2 175.75C114.987 176.03 113.75 176.287 112.537 176.52C110.344 176.94 108.15 177.29 105.934 177.5C103.974 177.687 101.85 177.5 99.9836 178.247C99.4002 178.48 98.8169 178.807 98.5136 179.343C97.4402 181.117 100.357 182.75 101.664 183.24C104.65 184.36 108.08 184.103 111.207 184.127C115.757 184.15 120.33 183.8 124.88 183.8C127.96 183.637 131.204 183.357 133.654 181.49C135.987 179.717 136.874 177.127 137.527 174.397C138.274 171.2 139.884 167.933 139.954 164.62C140.024 161.167 138.204 157.993 136.757 154.867C135.194 151.46 134.004 147.913 133.047 144.297C132.16 140.937 131.997 136.83 130.667 133.657C129.85 131.72 129.034 132.933 127.68 134.077C126.49 135.08 125.37 136.153 124.32 137.297C122.267 139.56 120.447 142.15 119.047 144.95Z" fill="#E5E5E5"/>
<path d="M119.047 144.95C117.834 147.376 116.924 149.966 116.41 152.626C115.22 158.763 116.597 164.97 117.834 170.99C118.067 172.156 118.557 173.416 118.627 174.606C118.674 175.213 118.58 175.166 117.927 175.33C117.344 175.47 116.784 175.61 116.2 175.75C114.987 176.03 113.75 176.286 112.537 176.52C110.344 176.94 108.15 177.29 105.934 177.5C103.974 177.686 101.85 177.5 99.9836 178.246C99.4002 178.48 98.8169 178.806 98.5136 179.343C96.9969 181.84 101.337 181.746 102.62 181.886C105.21 182.19 128.054 182.446 132.3 179.903C134.237 178.736 134.844 176.216 135.637 174.093C136.267 172.436 136.92 170.78 137.62 169.146C138.297 167.56 139.417 165.856 139.884 164.223C140.28 162.846 139.44 160.886 138.95 159.603C138.32 157.97 137.504 156.406 136.78 154.82C135.217 151.413 134.027 147.866 133.07 144.25C132.184 140.89 132.02 136.783 130.69 133.61C129.874 131.673 129.057 132.886 127.704 134.03C126.514 135.033 125.394 136.106 124.344 137.25C122.267 139.56 120.447 142.15 119.047 144.95Z" fill="white"/>
<path d="M135.497 163.828C135.66 165.858 135.17 168.145 134.704 170.128C134.214 172.228 133.467 174.281 132.534 176.241C131.67 178.038 130.317 179.695 129.15 181.281C128.334 182.401 127.307 183.218 125.907 183.335C123.037 183.568 120.144 183.755 117.274 183.848C117.437 183.848 117.904 183.171 117.997 183.055C118.277 182.751 118.534 182.378 118.86 182.098C119.21 181.818 119.467 181.911 119.934 181.911C122.29 181.981 125.674 182.005 127.377 180.138C129.01 178.318 130.527 176.358 131.717 174.235C133 171.948 133.817 169.451 134.564 166.931C134.657 166.511 135.17 163.828 135.497 163.828Z" fill="#E5E5E5"/>
<path d="M117.927 171.41C118.09 171.363 118.253 171.34 118.463 171.34C123.363 171.41 127.983 173.23 132.487 175.26C133.07 175.517 133.723 175.657 134.33 175.89C135.03 176.147 135.707 176.403 136.407 176.637C136.523 176.683 136.64 176.73 136.78 176.683C137.037 176.613 137.13 175.937 137.177 175.727C137.293 175.283 137.41 174.84 137.527 174.397C137.97 172.46 138.693 170.617 139.253 168.703C139.393 168.19 140.537 165.46 140.56 165.087C140.56 164.853 139.837 162.753 139.72 162.217C139.533 161.307 139.23 160.397 138.903 159.533C138.273 157.947 137.48 156.407 136.78 154.867C135.217 151.46 134.027 147.913 133.07 144.297C132.183 140.937 132.02 136.83 130.69 133.657C129.873 131.72 129.057 132.933 127.703 134.077C126.513 135.08 125.393 136.153 124.343 137.297C122.267 139.583 120.47 142.173 119.07 144.973C117.857 147.4 116.947 149.99 116.433 152.65C115.243 158.787 116.62 164.993 117.857 171.013C117.857 171.13 117.88 171.27 117.927 171.41Z" fill="#9FCDED"/>
<path d="M117.927 171.41C118.09 171.363 118.253 171.34 118.463 171.34C123.503 171.41 128.263 173.323 132.883 175.447C133.537 175.75 134.937 175.89 134.937 175.89C135.123 175.4 135.45 174.607 135.637 174.117C136.267 172.46 136.92 170.803 137.62 169.17C138.297 167.583 139.417 165.88 139.883 164.247C140.28 162.87 139.44 160.91 138.95 159.627C138.32 157.993 137.503 156.43 136.78 154.843C135.217 151.437 134.027 147.89 133.07 144.273C132.183 140.913 132.02 136.807 130.69 133.633C129.873 131.697 129.057 132.91 127.703 134.053C126.513 135.057 125.393 136.13 124.343 137.273C122.267 139.56 120.47 142.15 119.07 144.95C117.857 147.377 116.947 149.967 116.433 152.627C115.243 158.763 116.62 164.97 117.857 170.99C117.857 171.13 117.88 171.27 117.927 171.41Z" fill="#BBDFF5"/>
<path d="M132.93 175.402C133.677 173.698 134.283 171.948 134.703 170.152C135.17 168.168 135.66 165.882 135.497 163.852C135.17 163.852 134.657 166.512 134.54 166.955C133.793 169.475 132.977 171.948 131.694 174.258C131.577 174.468 131.46 174.655 131.344 174.865C131.857 175.028 132.393 175.215 132.93 175.402Z" fill="#9FCDED"/>
<path d="M117.973 171.575C119.14 171.295 120.773 171.739 121.917 171.949C123.083 172.159 124.227 172.462 125.347 172.812C127.75 173.559 130.013 174.655 132.347 175.589C132.65 175.705 133.14 175.565 133.397 175.355C133.49 175.262 133.56 175.145 133.653 175.075C133.303 175.145 132.953 175.239 132.603 175.309C133.047 175.519 133.42 175.869 133.863 176.079C134.587 176.429 135.52 176.779 136.313 176.895C136.57 176.942 137.527 176.499 137.247 176.452C136.57 176.335 135.87 176.055 135.217 175.799C134.633 175.565 134.213 175.192 133.677 174.912C133.397 174.772 132.86 174.959 132.627 175.145C132.533 175.215 132.463 175.355 132.37 175.425C132.72 175.355 133.07 175.262 133.42 175.192C130.713 174.095 128.1 172.859 125.3 172.065C123.083 171.435 120.19 170.642 117.903 171.202C117.227 171.389 117.297 171.739 117.973 171.575Z" fill="#6A79A8"/>
<path d="M134.937 163.71C134.82 168.656 133.63 173.953 130.877 178.13C130.2 179.157 129.43 180.16 128.683 181.163C127.82 182.307 126.957 182.867 125.51 183.03C122.78 183.31 120.05 183.543 117.32 183.637C116.69 183.66 116.433 184.453 117.203 184.407C118.79 184.337 120.4 184.243 121.987 184.103C123.41 183.987 124.927 183.963 126.35 183.683C128.66 183.24 129.897 181.117 131.18 179.343C134.447 174.816 135.94 169.17 136.08 163.616C136.103 163.033 134.96 163.22 134.937 163.71Z" fill="#6A79A8"/>
<path d="M126.91 160.21C129.407 158.787 131.367 156.64 132.533 154.027C132.79 153.467 131.647 153.537 131.46 153.933C130.34 156.43 128.543 158.413 126.163 159.767C125.533 160.14 126.49 160.443 126.91 160.21Z" fill="#6A79A8"/>
<path d="M129.57 132.303C128.87 132.467 128.38 132.91 127.867 133.353C127.003 134.1 126.14 134.847 125.323 135.64C123.83 137.087 122.453 138.697 121.24 140.4C118.697 143.947 116.807 148.007 115.92 152.277C114.94 156.92 115.453 161.657 116.293 166.277C116.713 168.587 117.203 170.873 117.787 173.16C117.88 173.51 118.253 174.607 118.09 174.933C118.043 175.027 117.227 175.19 116.993 175.237C115.897 175.493 114.8 175.75 113.68 175.96C111.277 176.45 108.873 176.87 106.447 177.127C104.393 177.337 102.27 177.173 100.287 177.803C99.1667 178.177 97.6734 178.947 97.7201 180.347C97.7667 181.56 99.0267 182.423 99.9834 182.96C103.297 184.85 107.357 184.5 111.02 184.5C115.733 184.5 120.493 184.383 125.207 184.15C129.22 183.94 133.49 183.217 135.963 179.717C137.223 177.92 137.737 175.797 138.32 173.72C139.043 171.2 139.3 168.073 141.12 166.067C141.587 165.553 140.49 165.483 140.187 165.81C139.02 167.093 138.53 168.633 138.11 170.267C137.597 172.32 137.06 174.373 136.43 176.403C135.823 178.34 134.82 180.183 133.14 181.42C131.507 182.61 129.5 183.053 127.54 183.263C123.457 183.707 119.257 183.613 115.15 183.73C112.98 183.8 110.787 183.8 108.617 183.8C106.587 183.8 104.51 183.73 102.573 183.123C101.36 182.727 99.8201 182.027 99.1201 180.907C97.6967 178.597 101.897 178.107 103.273 178.037C107.263 177.803 111.183 177.243 115.103 176.38C116.083 176.17 117.087 175.96 118.043 175.703C118.417 175.61 118.907 175.517 119.117 175.143C119.373 174.7 119.14 173.93 119.047 173.487C118.837 172.46 118.51 171.457 118.3 170.43C117.39 166.043 116.433 161.61 116.527 157.107C116.597 152.347 118.02 147.727 120.353 143.573C121.497 141.543 122.85 139.63 124.39 137.88C125.137 137.04 125.907 136.247 126.723 135.477C127.143 135.08 127.563 134.73 127.983 134.357C128.497 133.913 129.103 133.143 129.757 133.003C130.457 132.793 130.27 132.14 129.57 132.303Z" fill="#6A79A8"/>
<path d="M129.873 131.858C138.647 128.264 148.143 125.908 157.593 124.974C162.61 124.484 167.907 124.344 172.83 125.674C178.29 127.168 181.347 131.274 184.52 135.731C184.707 135.988 184.893 136.291 184.847 136.594C184.823 136.828 184.613 137.014 184.497 137.224C181.883 142.124 178.57 146.698 174.837 150.828C169.867 156.311 163.777 160.768 156.87 163.404C151.9 165.294 146.743 166.041 141.493 166.648C139.137 163.194 135.917 155.424 134.657 151.481C133 146.418 129.873 131.858 129.873 131.858Z" fill="#E5E5E5"/>
<path d="M177.87 138.766C178.406 138.882 178.966 138.952 179.527 138.999C180.11 139.046 180.693 139.046 181.253 139.022C181.346 139.022 182.49 138.999 182.49 138.906C182.49 139.022 182.256 139.209 182.186 139.279C181.953 139.536 181.766 139.839 181.556 140.119C181.276 140.492 180.996 140.866 180.693 141.216C180.11 141.939 179.526 142.662 178.92 143.386C178.313 144.109 177.706 144.809 177.1 145.486C176.47 146.186 175.84 146.862 175.186 147.516C174.533 148.192 173.88 148.822 173.18 149.476C172.503 150.106 171.803 150.736 171.08 151.319C170.66 151.669 170.216 152.019 169.773 152.369C164.453 156.522 158.387 159.696 151.947 161.702C148.073 162.892 144.083 163.639 140.14 164.456C140.14 164.456 139.907 164.059 139.417 163.079C138.74 161.749 138.11 160.396 137.527 159.019C136.453 156.546 135.427 154.026 134.61 151.436C132.977 146.349 129.85 131.812 129.85 131.812C138.623 128.219 148.12 125.862 157.57 124.929C162.073 124.486 166.763 124.322 171.243 125.256C171.103 125.419 170.986 125.629 170.917 125.839C170.777 126.329 170.683 126.842 170.636 127.332C170.52 128.336 170.45 129.432 170.683 130.412C170.753 130.669 170.846 130.926 170.87 131.182C170.893 131.439 170.893 131.672 171.01 131.929C171.267 132.536 171.476 133.166 171.756 133.772C172.223 134.869 172.877 135.872 173.763 136.689C174.907 137.809 176.353 138.462 177.87 138.766Z" fill="white"/>
<path d="M198.87 104.605C194.507 101.291 186.2 104.885 180.343 112.608C180.203 112.795 179.527 113.681 179.293 113.985C177.823 115.945 176.4 117.951 175.186 120.075C174.72 120.891 174.276 121.708 173.903 122.548C173.74 122.921 173.6 123.295 173.436 123.668C173.18 124.251 172.573 124.625 172.013 124.835C171.5 125.021 171.103 125.395 170.94 125.908C170.8 126.398 170.706 126.911 170.66 127.401C170.543 128.405 170.473 129.501 170.706 130.481C170.87 131.181 171.126 131.858 171.453 132.511C171.92 133.445 172.526 134.331 173.226 135.125C174.37 136.431 175.7 137.201 177.38 137.715C178.873 138.181 180.763 137.831 182.233 137.388C183.493 136.991 184.613 136.245 185.686 135.498C186.62 134.821 187.576 134.191 188.44 133.445C190.19 131.975 191.73 130.248 193.177 128.498C193.853 127.681 194.507 126.841 195.16 126.001C195.393 125.698 196.07 124.811 196.21 124.625C202.043 116.878 203.233 107.918 198.87 104.605Z" fill="#E5E5E5"/>
<path d="M198.87 104.602C198.847 104.579 198.823 104.556 198.8 104.556C198.17 104.112 197.493 103.786 196.747 103.599C195.09 103.179 193.317 103.389 191.706 103.902C187.296 105.256 183.54 108.546 180.74 112.116C180.6 112.279 180.483 112.442 180.343 112.629C180.203 112.816 179.527 113.702 179.293 114.006C177.823 115.966 176.4 117.972 175.186 120.096C174.72 120.912 174.276 121.729 173.903 122.569C173.74 122.942 173.6 123.316 173.436 123.689C173.18 124.272 172.573 124.646 172.013 124.856C171.5 125.042 171.103 125.416 170.94 125.929C170.8 126.419 170.706 126.932 170.66 127.422C170.543 128.426 170.473 129.522 170.706 130.502C170.87 131.202 171.126 131.879 171.453 132.532C171.92 133.466 172.526 134.352 173.226 135.146C174.37 136.452 175.7 137.222 177.38 137.736C178.243 137.992 179.083 137.666 179.946 137.502C180.856 137.316 181.743 136.942 182.536 136.429C188.277 132.626 192.477 126.349 195.837 120.469C196.583 119.162 197.26 117.809 197.797 116.409C198.543 114.496 199.127 112.489 199.57 110.482C199.78 109.479 199.827 108.382 199.943 107.356C200.06 105.979 199.897 105.349 198.87 104.602Z" fill="white"/>
<path d="M186.293 135.265C189.07 133.445 191.357 130.901 193.433 128.335C195.907 125.278 198.31 122.128 199.827 118.465C201.81 113.705 203.047 104.908 196.163 103.555C193.48 103.018 190.633 103.905 188.253 105.095C184.916 106.775 182.047 109.388 179.713 112.281C177.31 115.291 175 118.465 173.25 121.918C172.713 122.968 172.503 124.298 171.243 124.625C169.983 124.951 168.536 124.531 167.253 124.461C165.013 124.298 162.75 124.345 160.51 124.485C149.94 125.185 139.486 127.681 129.686 131.671C129.57 131.718 129.29 131.835 129.336 131.998C131.203 140.725 132.976 149.591 136.43 157.851C137.736 160.931 139.09 164.081 140.956 166.858C141.026 166.975 141.306 166.928 141.4 166.905C145.343 166.461 149.193 165.971 153.02 164.851C156.566 163.825 160.067 162.471 163.31 160.698C169.843 157.151 175.186 151.551 179.62 145.648C180.88 143.968 182.047 142.241 183.143 140.468C183.983 139.115 185.08 137.645 185.523 136.105C185.64 135.708 184.636 136.058 184.52 136.128C181.323 138.415 176.54 137.575 173.81 134.915C171.337 132.488 170.38 128.731 171.547 125.465C171.64 125.161 170.543 125.301 170.427 125.628C169.003 129.618 170.683 134.308 174.277 136.525C177.567 138.578 182.233 138.485 185.383 136.245C185.056 136.245 184.707 136.268 184.38 136.268C184.03 137.458 183.213 138.601 182.583 139.651C181.626 141.238 180.623 142.801 179.55 144.318C177.52 147.165 175.28 149.848 172.877 152.345C170.287 155.051 167.44 157.548 164.22 159.508C161.14 161.398 157.733 162.821 154.303 163.941C150.126 165.295 145.903 165.878 141.563 166.368C141.703 166.391 141.843 166.415 142.006 166.415C140.326 163.895 139.067 161.071 137.877 158.295C136.78 155.751 135.753 153.185 134.96 150.525C133.537 145.695 132.463 140.748 131.366 135.848C131.063 134.448 130.736 133.071 130.456 131.671C130.34 131.788 130.223 131.881 130.106 131.998C138.6 128.545 147.537 126.258 156.66 125.278C159.133 125.021 161.607 124.835 164.08 124.858C166.133 124.881 168.257 125.371 170.31 125.208C171.313 125.138 172.83 124.905 173.343 123.948C174.417 121.988 175.257 119.958 176.493 118.068C180.203 112.375 185.29 105.375 192.43 104.045C195.183 103.531 198.007 104.418 199.383 106.985C200.853 109.738 200.457 113.168 199.617 116.038C198.45 120.075 196.14 123.505 193.62 126.795C191.263 129.851 188.696 132.978 185.453 135.101C184.916 135.475 186.037 135.428 186.293 135.265Z" fill="#6A79A8"/>
<path d="M180.95 128.778C180.74 128.381 180.6 127.891 180.647 127.424C180.67 127.214 180.717 126.864 180.903 126.725C181.23 126.468 181.86 126.771 182.163 126.958C182.677 127.284 182.723 127.798 182.817 128.358C182.933 129.128 183.353 129.431 183.797 130.038C183.96 130.248 184.8 129.968 184.613 129.711C184.24 129.221 183.797 128.894 183.703 128.241C183.657 127.891 183.633 127.541 183.493 127.215C183.143 126.445 182.163 126.118 181.37 126.165C179.83 126.235 179.41 127.751 180.063 128.964C180.227 129.268 181.067 128.964 180.95 128.778Z" fill="#6A79A8"/>
<path d="M179.083 128.662C181.113 130.085 186.643 131.975 187.46 128.195C187.577 127.682 186.433 127.845 186.317 128.312C185.71 131.135 181.323 129.035 179.97 128.079C179.62 127.799 178.593 128.312 179.083 128.662Z" fill="#6A79A8"/>
<path d="M181.23 127.565C181.3 127.985 181.417 128.381 181.603 128.778C181.697 128.988 182.35 128.778 182.28 128.591C182.093 128.195 181.977 127.798 181.907 127.378C181.883 127.168 181.183 127.331 181.23 127.565Z" fill="#6A79A8"/>
<path d="M173.926 151.692C175.35 159.158 177.333 166.508 182.77 172.132C184.59 173.998 186.643 175.935 188.836 177.382C190.4 178.408 192.383 179.248 194.063 177.988C194.553 177.638 193.41 177.708 193.176 177.895C192.266 178.572 190.656 177.475 189.886 176.985C189 176.402 188.206 175.725 187.413 175.048C185.5 173.368 183.633 171.688 182.023 169.728C177.823 164.502 176.283 157.875 175.046 151.435C175 151.085 173.856 151.365 173.926 151.692Z" fill="#6A79A8"/>
<path d="M187.273 156.475C187.227 156.568 187.227 156.685 187.227 156.825C187.553 158.901 189.117 157.781 190.143 157.151C191.66 156.218 193.177 155.285 194.67 154.351C196.163 153.418 197.68 152.508 199.173 151.575C199.92 151.108 200.667 150.641 201.413 150.175C201.88 149.895 201.973 149.918 201.927 149.381C201.88 148.961 201.717 148.518 201.577 148.145C198.66 149.475 195.697 150.828 193.107 152.718C192.127 153.488 187.437 156.125 187.273 156.475Z" fill="#FFF0A9"/>
<path d="M205.753 152.674C204.983 152.93 204.283 153.164 203.56 153.444C203.187 153.584 202.953 153.864 203.21 154.33C203.373 154.634 203.793 154.984 204.073 155.194C206.99 157.41 214.013 153.07 219.683 145.557C225.377 138.02 227.617 130.11 224.677 127.894C224.28 127.59 223.183 126.89 222.763 127.427C222.32 128.01 222.927 129.434 222.927 130.11C222.927 131.814 222.693 133.517 222.273 135.174C221.457 138.51 214.877 149.524 205.753 152.674Z" fill="#FFF0A9"/>
<path d="M186.643 156.571C186.947 159.651 189.863 157.621 191.357 156.711C195.09 154.401 198.823 152.114 202.557 149.804C203.023 149.501 201.903 149.617 201.693 149.757C199.033 151.391 196.373 153.047 193.713 154.681C192.453 155.451 191.193 156.244 189.933 157.014C189.583 157.247 189.07 157.691 188.65 157.714C187.927 157.784 187.833 156.827 187.787 156.291C187.74 156.057 186.597 156.267 186.643 156.571Z" fill="#6A79A8"/>
<path d="M202.393 153.491C203.98 159.161 211.657 154.051 214.107 152.021C217.187 149.454 219.823 146.328 222.017 142.968C223.953 139.981 225.727 136.598 226.357 133.051C226.8 130.578 226.567 127.568 223.557 127.101C223.277 127.054 222.25 127.521 222.833 127.591C226.147 128.081 225.517 132.374 224.91 134.684C223.813 138.721 221.573 142.454 219.053 145.768C216.673 148.871 213.873 151.834 210.537 153.934C208.25 155.358 204.54 156.851 203.513 153.211C203.42 152.908 202.3 153.211 202.393 153.491Z" fill="#6A79A8"/>
<path d="M206.85 151.741C205.403 150.551 205.847 148.217 206.267 146.654C207.037 143.807 208.53 141.171 210.233 138.791C211.937 136.411 213.943 134.171 216.3 132.397C217.653 131.371 220.22 129.527 221.947 130.741C222.25 130.951 223.253 130.507 222.997 130.321C221.457 129.247 219.333 129.994 217.817 130.764C215.04 132.164 212.707 134.427 210.747 136.784C208.46 139.514 206.453 142.641 205.357 146.047C204.773 147.844 204.05 150.737 205.777 152.137C206.057 152.394 207.107 151.951 206.85 151.741Z" fill="#6A79A8"/>
<path d="M187.553 156.289L200.69 148.193L200.55 148.846C200.247 151.039 200.62 152.719 201.74 153.559C204.657 155.776 211.68 151.436 217.35 143.923C223.043 136.386 225.283 128.476 222.343 126.259C219.427 124.043 212.403 128.383 206.733 135.896C204.19 139.279 202.323 142.733 201.32 145.719L188.253 153.793C187.95 153.979 187.623 154.283 187.367 154.633C187.11 154.983 186.9 155.379 186.783 155.706C186.597 156.406 186.923 156.663 187.553 156.289ZM220.127 129.223C222.413 130.949 220.663 137.156 216.207 143.059C211.75 148.963 206.267 152.346 203.957 150.619C201.67 148.893 203.42 142.686 207.877 136.783C212.333 130.879 217.84 127.496 220.127 129.223Z" fill="white"/>
<path d="M187.973 156.313C192.36 153.606 196.723 150.9 201.11 148.216C200.783 148.24 200.457 148.263 200.13 148.286C199.593 151.04 200.06 154.493 203.513 154.376C206.687 154.283 209.697 152.136 212.03 150.153C215.833 146.933 219.007 142.85 221.363 138.486C222.95 135.523 225.073 131.16 223.953 127.683C223.16 125.187 220.477 125.21 218.377 125.887C214.76 127.053 211.657 129.807 209.113 132.513C205.66 136.2 202.65 140.586 200.947 145.346C200.783 145.79 200.923 145.626 200.62 145.883C200.363 146.116 199.99 146.28 199.687 146.443C198.66 147.073 197.61 147.726 196.583 148.356C194.063 149.92 191.543 151.46 189.023 153.023C188.44 153.373 187.787 153.7 187.297 154.19C186.9 154.586 185.71 155.986 186.317 156.546C186.713 156.92 187.483 156.546 187.88 156.36C188.557 156.033 187.507 156.056 187.227 156.196C187.413 156.103 187.46 155.333 187.577 155.076C187.833 154.563 188.23 154.143 188.697 153.816C188.767 153.77 188.86 153.723 188.93 153.676C189.513 153.303 190.097 152.953 190.703 152.58C192.663 151.366 194.647 150.153 196.607 148.94C198.193 147.96 199.803 146.98 201.39 145.976C202.02 145.58 202.067 145.043 202.37 144.32C203.163 142.36 204.167 140.493 205.287 138.72C207.643 134.986 210.607 131.487 214.107 128.78C215.903 127.403 219.497 124.697 221.83 126.47C223.977 128.103 222.973 131.907 222.297 133.983C220.943 138.113 218.54 141.94 215.81 145.276C213.173 148.496 209.86 151.973 205.893 153.49C204.703 153.956 203.233 154.19 202.16 153.28C200.713 152.043 200.9 149.756 201.227 148.076C201.297 147.75 200.34 148.076 200.247 148.146C195.86 150.853 191.497 153.56 187.11 156.243C186.643 156.57 187.763 156.453 187.973 156.313Z" fill="#6A79A8"/>
<path d="M219.59 129.413C220.687 130.323 220.663 131.956 220.453 133.239C220.15 135.106 219.403 136.903 218.54 138.583C216.393 142.713 213.243 146.749 209.347 149.363C208.133 150.156 206.243 151.393 204.75 150.623C203.677 150.063 203.467 148.709 203.513 147.613C203.677 143.319 206.547 138.979 209.16 135.759C210.77 133.776 212.59 131.933 214.713 130.509C216.043 129.623 218.073 128.363 219.59 129.413C219.847 129.599 220.827 129.133 220.64 129.016C217.887 127.103 213.593 130.439 211.633 132.143C207.62 135.666 203.91 140.659 202.65 145.933C202.323 147.333 202.02 149.223 203.023 150.436C203.887 151.463 205.357 151.393 206.547 151.089C211.027 149.969 214.69 145.816 217.257 142.246C219.053 139.749 220.663 136.903 221.387 133.869C221.76 132.306 222.04 130.159 220.64 128.993C220.407 128.829 219.403 129.273 219.59 129.413Z" fill="#6A79A8"/>
<path d="M219.59 129.433C222.063 131.463 219.637 136.433 218.54 138.579C216.417 142.709 213.243 146.746 209.347 149.336C208.18 150.106 206.313 151.319 204.843 150.643C203.7 150.129 203.467 148.729 203.513 147.609C203.677 143.316 206.57 138.976 209.16 135.779C210.77 133.796 212.59 131.953 214.713 130.529C216.02 129.666 218.097 128.383 219.59 129.433C219.87 129.619 220.873 129.176 220.64 129.036C217.793 127.053 213.43 130.553 211.447 132.326C207.527 135.826 203.887 140.773 202.673 145.953C202.347 147.353 202.067 149.266 203.07 150.479C203.933 151.506 205.403 151.459 206.593 151.156C211.143 150.013 214.923 145.673 217.49 141.986C219.193 139.536 220.71 136.829 221.41 133.913C221.783 132.349 222.063 130.179 220.663 129.036C220.383 128.803 219.357 129.246 219.59 129.433Z" fill="#6A79A8"/>
<path d="M160.16 139.374C160.743 143.294 162.097 147.307 164.617 150.434C166.857 153.234 169.937 155.38 173.25 156.71C176.657 158.087 180.25 158.484 183.89 158.017C185.873 157.76 187.973 157.34 189.77 156.454C191.1 155.777 194.18 152.93 195.323 155.124C195.533 155.544 196.653 155.194 196.443 154.82C194.787 151.6 190.68 155.357 188.767 156.174C184.73 157.83 179.9 157.947 175.77 156.687C172.083 155.567 168.653 153.42 166.133 150.504C163.38 147.33 161.933 143.177 161.327 139.07C161.21 138.627 160.09 138.907 160.16 139.374Z" fill="#6A79A8"/>
<path d="M179.41 110.998C179.037 112.351 180.437 113.424 181.393 113.984C184.147 115.618 187.367 115.874 190.47 116.364C193.69 116.878 196.98 117.111 200.247 117.181C200.293 117.228 200.34 117.251 200.387 117.298C202.697 112.398 200.83 106.658 196.233 104.511C191.66 102.364 186.107 104.558 183.797 109.434H183.773C182.957 109.341 182.14 109.341 181.393 109.481C180.553 109.644 179.667 110.064 179.41 110.998Z" fill="#E5E5E5"/>
<path d="M179.27 109.388C178.897 110.741 180.297 111.815 181.253 112.375C184.006 114.008 187.227 114.265 190.33 114.755C193.55 115.268 196.84 115.501 200.106 115.571C200.153 115.618 200.2 115.641 200.246 115.688C202.556 110.788 200.69 105.048 196.093 102.901C191.52 100.755 185.966 102.948 183.656 107.825H183.633C182.817 107.731 182 107.731 181.253 107.871C180.413 108.011 179.527 108.455 179.27 109.388Z" fill="#9FCDED"/>
<path d="M179.27 109.388C178.897 110.741 180.273 111.838 181.253 112.375C183.167 113.448 186.153 113.658 189.887 113.845C192.547 113.985 194.833 114.031 198.1 114.078C198.147 114.125 200.69 105.048 196.093 102.878C191.52 100.731 185.967 102.925 183.657 107.801H183.633C182.817 107.708 182 107.708 181.253 107.848C180.413 108.011 179.527 108.455 179.27 109.388Z" fill="#BBDFF5"/>
<path d="M184.17 107.803C186.41 103.229 191.893 100.803 196.467 103.603C200.597 106.123 201.577 111.536 199.663 115.759C200.037 115.666 200.387 115.573 200.76 115.479C195.86 111.559 190.027 109.063 183.96 107.593C183.61 107.499 182.63 108.036 183.26 108.176C189.21 109.623 194.927 112.049 199.71 115.899C199.99 116.133 200.643 115.923 200.807 115.619C203.07 110.603 201.157 104.163 195.673 102.296C190.68 100.569 185.29 103.369 183.05 107.966C182.887 108.246 183.983 108.153 184.17 107.803Z" fill="#6A79A8"/>
<path d="M200.48 115.317C195.93 115.247 191.357 114.757 186.877 113.917C184.94 113.567 182.933 113.03 181.3 111.887C180.623 111.397 179.83 110.744 179.76 109.834C179.597 107.944 181.907 107.897 183.237 108.037C183.493 108.06 184.52 107.617 183.96 107.547C182.373 107.384 179.783 107.43 178.873 109.064C177.73 111.14 180.693 112.704 182.187 113.31C184.73 114.384 187.577 114.64 190.283 115.037C193.41 115.504 196.583 115.737 199.757 115.784C200.013 115.807 201.04 115.34 200.48 115.317Z" fill="#6A79A8"/>
<path d="M195.183 103.205C195.58 102.389 195.813 101.549 195.86 100.662C195.883 100.265 194.763 100.499 194.74 100.825C194.67 101.712 194.46 102.575 194.064 103.369C193.947 103.579 194.437 103.579 194.53 103.555C194.763 103.532 195.067 103.415 195.183 103.205Z" fill="#6A79A8"/>
<path d="M200.317 102.132C197.097 101.642 194.25 99.7524 192.5 96.9991C192.29 96.6724 191.24 97.0924 191.38 97.3024C193.247 100.242 196.187 102.132 199.617 102.669C199.897 102.692 200.9 102.226 200.317 102.132Z" fill="#6A79A8"/>
<path d="M200.48 97.8602C197.493 99.9369 193.9 100.777 190.307 100.287C189.77 100.217 189.14 100.964 189.91 101.057C193.9 101.594 197.913 100.614 201.227 98.3269C201.833 97.8835 200.9 97.5569 200.48 97.8602Z" fill="#6A79A8"/>
<path d="M203.887 100.867C204.727 99.6306 204.447 98.0439 203.14 97.2739C202.837 97.0873 201.833 97.5539 202.09 97.6939C203.233 98.3706 203.607 99.7706 202.86 100.891C202.58 101.264 203.7 101.124 203.887 100.867Z" fill="#6A79A8"/>
<path d="M193.667 95.3878C191.963 94.5245 190.003 95.0378 189 96.6478C188.673 97.1611 189.817 97.1844 190.073 96.7644C190.68 95.8078 191.8 95.5045 192.803 96.0178C193.223 96.2511 194.203 95.6678 193.667 95.3878Z" fill="#6A79A8"/>
<path d="M190.633 94.0806C188.44 93.9639 186.293 95.4573 186.48 97.8373C186.503 98.1406 187.647 97.9073 187.6 97.5339C187.483 96.1806 188.37 94.5473 189.91 94.6406C190.143 94.6639 190.54 94.6173 190.703 94.4306C190.843 94.2673 190.913 94.0806 190.633 94.0806Z" fill="#6A79A8"/>
<path d="M204.89 102.764C206.15 101.83 206.71 100.22 206.15 98.7269C206.033 98.4236 204.913 98.7736 205.03 99.0303C205.52 100.337 205.17 101.854 204.027 102.694C203.537 103.044 204.657 102.927 204.89 102.764Z" fill="#6A79A8"/>
<path d="M70.7001 158.645C74.1067 163.871 78.1667 169.588 84.3034 170.708C76.1601 181.161 62.3934 186.948 49.2334 185.431C50.2367 185.548 51.0767 177.148 51.6601 176.121C52.9667 173.835 55.7201 173.625 57.9601 172.505C63.7001 169.635 68.4134 164.641 70.7001 158.645Z" fill="#FFF0A9"/>
<path d="M70.1868 158.854C73.5468 164.011 77.5368 169.728 83.9768 170.988C83.9068 170.894 83.8601 170.778 83.7901 170.684C75.7634 180.904 62.5334 186.528 49.5834 185.104C49.3968 185.314 49.2101 185.501 49.0234 185.711C50.4468 185.664 50.6334 183.798 50.8668 182.724C51.2868 180.764 51.5201 178.758 51.9868 176.798C52.6634 174.068 56.0468 173.718 58.1934 172.668C60.9468 171.338 63.4668 169.494 65.5901 167.301C68.0634 164.781 69.9768 161.818 71.2601 158.528C71.4001 158.178 70.2801 158.318 70.1401 158.668C68.6934 162.378 66.3834 165.691 63.3968 168.351C61.9268 169.681 60.2934 170.824 58.5668 171.781C57.0034 172.644 55.2768 173.064 53.6901 173.834C52.6401 174.348 51.5201 175.141 51.0301 176.261C50.6801 177.078 50.6101 178.058 50.4468 178.944C50.2134 180.204 50.0034 181.464 49.7468 182.724C49.6301 183.261 49.5134 183.774 49.3501 184.288C49.3034 184.474 49.1634 184.684 49.1401 184.871C49.0934 185.314 48.5801 185.081 49.4434 185.034C49.1868 185.034 48.2301 185.571 48.8834 185.641C62.4401 187.134 76.3934 181.371 84.8168 170.638C84.9334 170.474 84.7934 170.358 84.6301 170.334C78.3534 169.098 74.4568 163.358 71.1901 158.364C71.0268 158.131 69.9301 158.481 70.1868 158.854Z" fill="#6A79A8"/>
<path d="M69.2767 165.83C70 166.647 70.28 167.837 70.6767 168.84C71.05 169.75 71.47 170.637 72.0067 171.454C73.1267 173.134 74.7133 174.347 76.58 175.07C76.8833 175.187 77.91 174.72 77.49 174.557C75.4367 173.764 73.78 172.34 72.7067 170.427C71.82 168.864 71.5167 166.74 70.3267 165.387C70.0933 165.154 69.02 165.55 69.2767 165.83Z" fill="#6A79A8"/>
<path d="M66.7102 170.709C66.6635 173.252 67.5968 175.609 69.3468 177.429C69.5568 177.639 70.6068 177.242 70.3968 177.032C68.6702 175.212 67.7835 172.902 67.8302 170.406C67.8535 170.196 66.7102 170.359 66.7102 170.709Z" fill="#6A79A8"/>
<path d="M64.82 173.322C64.7733 175.655 65.3566 177.849 66.5 179.879C66.7333 180.275 67.8066 179.879 67.5266 179.389C66.4533 177.475 65.9167 175.399 65.9633 173.205C65.9633 172.669 64.82 172.855 64.82 173.322Z" fill="#6A79A8"/>
<path d="M60.6202 173.066C60.1769 175.819 60.1069 179.692 62.3935 181.722C62.7435 182.026 63.7935 181.582 63.4202 181.256C61.2269 179.319 61.3202 175.609 61.7402 172.972C61.8569 172.436 60.6902 172.599 60.6202 173.066Z" fill="#6A79A8"/>
</svg>
