<svg width="400" height="400" viewBox="0 0 400 400" fill="none" xmlns="http://www.w3.org/2000/svg">
<path d="M400 0H0V400H400V0Z" fill="white"/>
<path d="M119.297 344.914C112.237 343.388 27.4166 329.634 33.6666 228.188C39.9166 126.741 47.7433 96.2311 80.72 85.0678C113.697 73.9045 193.857 21.0911 256.76 71.3111C319.663 121.531 387.54 166.571 360.603 246.758C333.667 326.944 329.27 353.694 258.98 349.601C188.69 345.508 152.867 352.178 119.297 344.914Z" fill="#F9F9F9"/>
<path d="M257.04 306.559C266.083 309.819 243.73 314.225 240.593 314.559C206.723 317.992 170.073 316.395 136.517 312.022C135.14 311.842 133.72 311.642 132.58 311.085C124.287 307.025 150.933 304.269 153.407 304.059C162.603 303.269 171.947 302.752 181.223 302.665C194.367 302.539 245.827 302.522 257.04 306.559Z" fill="#E3E3E3"/>
<path d="M213.78 154.936C213.78 143.353 214.273 131.52 212.35 120.046C210.963 111.766 207.767 103.16 199.99 98.9262C195.797 96.6462 190.99 95.8329 186.267 95.7362C181.383 95.6362 176.37 96.1629 171.837 98.0696C163.943 101.403 159.923 108.81 158.17 116.856C155.477 129.28 156.423 142.433 156.427 155.05C156.427 155.886 158.057 155.643 158.057 154.926C158.057 144.016 157.533 132.966 158.897 122.113C159.897 114.17 162.207 105.446 169.263 100.753C173.127 98.1796 177.817 97.2062 182.39 96.9529C187.31 96.6829 192.443 97.0796 197.023 99.0196C204.92 102.353 208.627 110.14 210.29 118.116C212.8 130.163 212.14 142.82 212.14 155.05C212.14 155.886 213.77 155.643 213.77 154.926L213.78 154.936Z" fill="#6A79A8"/>
<path d="M132.023 270.337V138.283H147.08V152.69L141.55 279.13L138.867 272.77L132.023 270.337Z" fill="#DBDBDB"/>
<path d="M134.69 264.253V144.629C134.688 143.796 134.85 142.971 135.167 142.201C135.485 141.43 135.951 140.73 136.539 140.14C137.127 139.55 137.826 139.082 138.596 138.763C139.365 138.444 140.19 138.279 141.023 138.279H147.067V152.333L141.86 275.463L140.333 269.266L137.14 267.933C136.414 267.63 135.793 267.119 135.357 266.464C134.921 265.809 134.689 265.04 134.69 264.253Z" fill="#EFEFEF"/>
<path d="M132.827 270.12V140.08C132.827 139.573 132.98 138.786 132.827 138.296C132.817 138.22 132.817 138.143 132.827 138.066L131.493 138.586H144.333C144.88 138.586 145.44 138.623 146 138.586C146.141 138.561 146.286 138.561 146.427 138.586C146.76 138.716 146.247 138.29 146.3 138.536C146.497 139.423 146.3 140.57 146.3 141.47V146.863C146.3 148.883 146.347 150.913 146.3 152.936C146.147 159.47 145.727 166.01 145.443 172.54L143.623 214.13L141.763 256.643C141.541 261.65 141.319 266.656 141.097 271.663L140.887 276.49C140.85 277.266 140.643 278.246 140.773 279.016C140.787 279.127 140.787 279.239 140.773 279.35L142.383 278.916L140.98 275.583C140.647 274.786 140.313 273.103 139.647 272.503C138.98 271.903 137.217 271.64 136.38 271.343L132.803 270.073C132.367 269.916 131.2 270.573 131.28 270.603L134.547 271.763L136.88 272.59C137.193 272.7 137.86 272.796 138.11 273.026C138.657 273.523 139.11 275.396 139.427 276.166L140.76 279.346C140.893 279.68 142.357 279.253 142.37 278.913L143.037 263.58L144.597 227.95C145.183 214.521 145.771 201.091 146.36 187.66L147.64 158.326C147.907 152.26 147.897 146.22 147.897 140.143V138.076C147.897 137.99 147.643 137.986 147.62 137.986H132.55C132.29 137.986 131.217 138.126 131.217 138.506V268.536C131.217 268.99 131.037 269.896 131.217 270.32C131.228 270.397 131.228 270.476 131.217 270.553C131.217 270.753 132.827 270.543 132.827 270.12Z" fill="#6A79A8"/>
<path d="M186.917 306.616V279.412C186.917 278.529 185.28 278.746 185.28 279.512V306.716C185.28 307.599 186.917 307.382 186.917 306.616Z" fill="#6A79A8"/>
<path d="M208.797 305.497V279.8C208.797 278.954 207.167 279.19 207.167 279.92V305.617C207.167 306.464 208.797 306.227 208.797 305.497Z" fill="#6A79A8"/>
<path d="M141.55 152.693C184.97 162.177 255.413 154.693 252.55 152.693V279.13C252.55 279.13 215.683 284.667 141.55 279.13V152.693Z" fill="#E3E3E3"/>
<path d="M150.407 153.396C212.177 160.513 252.533 152.699 252.533 152.699V271.883C252.533 273.009 252.109 274.094 251.345 274.922C250.581 275.75 249.533 276.26 248.41 276.349C235.1 277.416 191.9 280.326 153.363 276.896C150.986 276.68 148.775 275.582 147.166 273.818C145.557 272.055 144.665 269.753 144.667 267.366V158.503C144.667 157.777 144.821 157.06 145.118 156.398C145.415 155.736 145.849 155.144 146.391 154.662C146.933 154.179 147.571 153.817 148.263 153.599C148.956 153.381 149.686 153.312 150.407 153.396Z" fill="white"/>
<path d="M141.043 153.077C160.66 155.947 180.617 156.593 200.417 156.537C215.663 156.493 231.083 156.203 246.237 154.487C248.07 154.331 249.891 154.045 251.683 153.63C251.943 153.563 254.017 152.963 253.287 152.397C252.953 152.133 251.727 152.397 251.727 152.907V277.427C251.727 277.86 251.56 278.713 251.727 279.12C251.738 279.195 251.738 279.271 251.727 279.347L252.66 278.753C242.533 280.27 232.147 280.607 221.93 280.923C209.113 281.32 196.283 281.257 183.463 280.923C174.981 280.685 166.502 280.319 158.027 279.823C153.36 279.55 148.693 279.244 144.027 278.907C143.693 278.883 142.433 279 142.343 278.837C142.297 278.75 142.367 278.57 142.343 278.473C142.057 277.3 142.343 275.693 142.343 274.493V164.72C142.343 160.86 142.62 156.883 142.343 153.03C142.343 152.847 142.343 152.66 142.343 152.477C142.343 152.09 140.733 152.357 140.733 152.907V277.427C140.733 277.893 140.58 278.673 140.733 279.12C140.743 279.195 140.743 279.271 140.733 279.347C140.733 279.457 140.97 279.513 141.033 279.517C164.27 281.243 187.587 282.23 210.89 281.937C222.933 281.783 235.003 281.34 246.993 280.137C248.797 279.957 250.603 279.773 252.393 279.507C252.677 279.463 253.327 279.3 253.327 278.913V154.397C253.327 153.917 253.473 153.163 253.327 152.703C253.317 152.628 253.317 152.552 253.327 152.477L251.78 153C251.747 152.977 252.113 152.877 251.867 152.883C251.773 152.883 251.087 153.08 250.747 153.147C249.017 153.48 247.253 153.67 245.503 153.857C239.433 154.5 233.33 154.857 227.237 155.13C209.2 155.97 191.097 156.037 173.063 155.157C162.693 154.65 152.33 153.823 142.063 152.32C141.623 152.243 140.183 152.953 141.043 153.077Z" fill="#6A79A8"/>
<path d="M252.533 152.692L227.47 142.645L242.16 138.278C242.16 138.278 195.443 135.222 132.023 138.278L147.08 143.258L141.55 152.692C204.557 160.998 252.533 152.692 252.533 152.692Z" fill="#E3E3E3"/>
<path d="M253.17 152.297L228.11 142.25L227.58 143.06L242.273 138.697C242.787 138.544 243.363 137.874 242.473 137.814C235.917 137.387 229.347 137.147 222.78 136.957C205.5 136.424 188.212 136.303 170.917 136.594C157.983 136.794 145.054 137.204 132.13 137.824C131.703 137.844 130.727 138.464 131.53 138.727L146.587 143.707L146.327 143.237L140.797 152.667C140.767 152.713 140.751 152.766 140.749 152.821C140.747 152.876 140.761 152.93 140.787 152.978C140.814 153.026 140.853 153.066 140.901 153.093C140.948 153.12 141.002 153.134 141.057 153.134C162.625 155.96 184.374 157.177 206.123 156.774C219.35 156.582 232.557 155.692 245.69 154.107C247.94 153.824 250.193 153.534 252.427 153.15C253.197 153.017 253.76 152.044 252.64 152.234C246.113 153.36 239.477 153.98 232.887 154.53C215.71 155.934 198.463 156.283 181.243 155.574C168.132 155.056 155.064 153.945 142.04 152.24L142.3 152.707L147.83 143.277C147.98 143.02 147.797 142.884 147.57 142.807L132.513 137.83C132.313 138.13 132.113 138.43 131.917 138.734C153.503 137.696 175.109 137.251 196.733 137.4C209.65 137.49 222.57 137.777 235.47 138.4C237.597 138.5 239.727 138.604 241.85 138.734L242.05 137.85L227.36 142.214C227.15 142.277 226.243 142.79 226.83 143.027L251.893 153.07C252.387 153.287 253.85 152.567 253.17 152.297Z" fill="#6A79A8"/>
<path d="M242.163 138.283L227.47 142.647L242.163 148.55V138.283Z" fill="#EFEFEF"/>
<path d="M242.03 137.786L227.333 142.149C226.863 142.289 226.303 142.873 227 143.149L241.693 149.053C242.043 149.196 242.98 148.969 242.98 148.476V138.206C242.98 137.426 241.357 137.709 241.357 138.356V148.626L242.643 148.049L227.953 142.143C227.837 142.476 227.723 142.809 227.62 143.143L242.31 138.776C243.263 138.489 243 137.493 242.03 137.786Z" fill="#6A79A8"/>
<path d="M224.167 168.194C224.167 156.527 224.683 144.621 222.683 133.087C221.243 124.774 217.92 116.251 209.967 112.234C205.68 110.067 200.783 109.391 196.027 109.391C191.27 109.391 186.497 109.994 182.127 111.857C174.2 115.234 170.223 122.584 168.523 130.697C165.933 143.057 166.84 156.084 166.857 168.624C166.857 168.881 168.467 168.654 168.467 168.194C168.467 157.284 167.943 146.231 169.303 135.377C170.303 127.394 172.677 118.561 179.763 113.834C183.763 111.151 188.633 110.241 193.39 110.074C198.34 109.901 203.51 110.407 208.03 112.571C215.667 116.214 219.183 123.984 220.78 131.904C223.2 143.904 222.57 156.467 222.567 168.637C222.567 168.894 224.177 168.667 224.177 168.207L224.167 168.194Z" fill="#6A79A8"/>
<path d="M169.303 171.063C169.253 172.003 168.687 173.18 167.553 172.957C167.08 172.836 166.662 172.56 166.366 172.172C166.069 171.784 165.912 171.308 165.92 170.82C165.92 169.787 166.693 168.7 167.83 169.047C168.787 169.337 169.257 170.25 169.307 171.19C169.337 171.76 170.95 171.42 170.917 170.757C170.703 166.793 164.29 167.357 164.293 171.127C164.293 175.127 170.717 174.613 170.92 170.883C170.957 170.177 169.333 170.477 169.303 171.063Z" fill="#6A79A8"/>
<path d="M225.073 171.077C225.02 172.031 224.473 173.211 223.33 172.994C222.33 172.807 221.687 171.764 221.683 170.814C221.683 169.781 222.437 168.637 223.587 169.014C224.543 169.324 225.02 170.241 225.07 171.191C225.097 171.681 226.713 171.361 226.68 170.757C226.47 166.831 220.073 167.424 220.06 171.134C220.06 175.104 226.483 174.534 226.68 170.867C226.713 170.234 225.1 170.557 225.073 171.077Z" fill="#6A79A8"/>
<path d="M251.727 206.683C251.78 210.256 254.08 214.186 256.173 216.91C261.173 223.416 268.973 226.576 276.94 227.516C277.69 227.603 278.607 226.536 277.517 226.406C269.773 225.486 262.263 222.37 257.48 215.993C255.607 213.493 253.397 209.643 253.35 206.54C253.35 205.736 251.717 206.01 251.727 206.683Z" fill="#6A79A8"/>
<path d="M137.92 213.12C137.877 216.637 136.2 220.49 134.753 223.6C131.247 231.137 125.727 237.534 119.14 242.557C118.473 243.06 120.073 242.89 120.387 242.657C127.013 237.604 132.603 231.224 136.19 223.657C137.74 220.397 139.483 216.377 139.523 212.68C139.523 212.367 137.92 212.604 137.913 213.11L137.92 213.12Z" fill="#6A79A8"/>
<path d="M261.183 270.068L287.29 245.818L289.447 243.818C289.644 243.668 289.827 243.5 289.993 243.315C290.37 242.775 289.78 243.702 289.543 243.472C289.63 243.555 290.737 243.138 290.853 243.115L293.963 242.272L315.073 236.535L324.307 234.025C325.927 233.585 327.793 232.672 329.44 233.442C332.587 234.912 332.407 239.195 329.613 240.828C328.487 241.495 327.33 242.095 326.19 242.728L290.123 262.758L272.51 272.542L267.12 275.542C265.83 276.258 264.543 277.228 262.977 276.682C260.197 275.705 259.46 272.298 261.183 270.082C261.547 269.615 259.98 269.802 259.713 270.145C256.497 274.278 261.047 278.928 265.507 277.202C266.485 276.767 267.433 276.266 268.343 275.702L283.293 267.398L323.783 244.915L329.333 241.822C330.553 241.155 331.907 240.535 332.703 239.332C335.093 235.712 331.42 231.665 327.563 232.478C326.073 232.785 324.597 233.285 323.13 233.682L300.82 239.745L291.633 242.242C290.633 242.518 289.397 242.662 288.563 243.332C286.943 244.638 285.477 246.202 283.953 247.615L275.55 255.422L260.627 269.285L259.717 270.132C259.333 270.495 260.867 270.365 261.183 270.068Z" fill="#6A79A8"/>
<path d="M290.167 242.796C289.055 240.796 287.944 238.804 286.833 236.82C286.58 236.37 285.047 236.936 285.223 237.25C286.334 239.25 287.44 241.242 288.54 243.226C288.79 243.676 290.327 243.11 290.15 242.796H290.167Z" fill="#6A79A8"/>
<path d="M289.743 226.696C286.273 220.869 276.867 221.696 274.603 228.203C274.053 229.82 274.059 231.574 274.619 233.188C275.179 234.801 276.263 236.182 277.697 237.109C280.403 238.816 283.75 238.623 286.52 237.189C287.47 236.699 286.003 236.656 285.567 236.879C280.32 239.589 274.773 234.093 275.967 228.763C276.56 226.096 278.7 223.763 281.503 223.486C284.25 223.229 286.76 224.819 288.133 227.126C288.4 227.576 289.92 226.993 289.743 226.696Z" fill="#6A79A8"/>
<path d="M78.31 261.509L74.8533 259.665C73.6466 259.029 72.0333 258.439 71.1033 257.399C68.9166 254.952 70.77 250.462 74.2166 251.225C79.5166 252.395 84.77 253.862 90.0366 255.175L109.247 259.999C110.01 260.192 110.773 260.409 111.543 260.572C111.709 260.604 111.872 260.646 112.033 260.695C112.303 260.789 111.7 260.469 111.93 260.632C113.217 261.552 114.363 262.802 115.543 263.855L131.15 277.765L138.223 284.069C139.267 284.999 140.443 285.875 141.397 286.899C143.063 288.682 142.697 291.862 140.427 292.995C139.34 293.539 138.247 293.182 137.243 292.662C135.963 292.022 134.71 291.329 133.447 290.662L116.86 281.892L85.38 265.249L84.7733 264.915C84.2566 264.642 82.7933 265.372 83.5066 265.749L113.417 281.562L131.667 291.219C135.177 293.075 140 296.492 143.19 291.989C144.857 289.655 143.94 287.165 142.013 285.449L136.24 280.305L119.177 265.095L113.863 260.359C113.17 259.742 112.603 259.635 111.69 259.405L92.6 254.639C86.7966 253.189 81.0033 251.662 75.18 250.305C72.71 249.725 70.0233 250.749 68.9466 253.149C68.5608 253.975 68.4293 254.898 68.5688 255.799C68.7082 256.701 69.1124 257.541 69.73 258.212C70.6733 259.192 72.1166 259.752 73.2966 260.375L77.0433 262.332C77.56 262.605 79.02 261.879 78.31 261.502V261.509Z" fill="#6A79A8"/>
<path d="M113.443 260.121C114.508 258.107 115.572 256.093 116.637 254.077C117.02 253.354 115.4 253.467 115.123 253.991C114.061 256.006 112.997 258.021 111.93 260.034C111.547 260.757 113.167 260.647 113.443 260.121Z" fill="#6A79A8"/>
<path d="M126.7 250.976C129.853 244.553 123.773 237.883 117.033 239.883C110.293 241.883 109.033 250.936 115.233 254.449C115.743 254.739 117.207 254.019 116.5 253.619C111.583 250.826 111.323 242.799 117.167 240.833C123.14 238.833 127.677 245.756 125.167 250.889C124.803 251.629 126.42 251.509 126.68 250.976H126.7Z" fill="#6A79A8"/>
<path d="M177.591 208.847C178.022 207.014 176.885 205.179 175.052 204.748C173.218 204.317 171.383 205.454 170.952 207.288C170.522 209.121 171.659 210.957 173.492 211.387C175.325 211.818 177.161 210.681 177.591 208.847Z" fill="#6A79A8"/>
<path d="M223.756 207.164C224.257 205.348 223.191 203.47 221.375 202.97C219.559 202.47 217.682 203.536 217.182 205.351C216.681 207.167 217.747 209.044 219.563 209.545C221.378 210.045 223.256 208.979 223.756 207.164Z" fill="#6A79A8"/>
<path d="M175.287 237.422C178.667 233.645 183.667 230.919 188.433 229.445C197.18 226.739 206.927 228.075 214.82 232.639C216.492 233.56 218.048 234.679 219.453 235.972C219.82 236.325 221.33 235.729 220.953 235.369C216.81 231.369 210.76 228.935 205.207 227.872C196.02 226.116 186.512 228.067 178.76 233.299C176.945 234.472 175.28 235.864 173.803 237.442C173.383 237.912 174.97 237.775 175.287 237.425V237.422Z" fill="#6A79A8"/>
<path d="M164.057 230.12C166.571 230.12 168.61 227.313 168.61 223.85C168.61 220.387 166.571 217.58 164.057 217.58C161.542 217.58 159.503 220.387 159.503 223.85C159.503 227.313 161.542 230.12 164.057 230.12Z" fill="#FF9C81"/>
<path d="M230.907 228.45C233.421 228.45 235.46 225.643 235.46 222.18C235.46 218.717 233.421 215.91 230.907 215.91C228.392 215.91 226.353 218.717 226.353 222.18C226.353 225.643 228.392 228.45 230.907 228.45Z" fill="#FF9C81"/>
<path d="M218.357 213.099C218.357 213.537 218.183 213.956 217.873 214.266C217.564 214.575 217.144 214.749 216.707 214.749C216.269 214.749 215.849 214.575 215.54 214.266C215.23 213.956 215.057 213.537 215.057 213.099C215.057 212.189 216.723 209.256 216.723 209.256C216.723 209.256 218.357 212.189 218.357 213.099Z" fill="#BBDFF5"/>
</svg>
