<svg width="400" height="400" viewBox="0 0 400 400" fill="none" xmlns="http://www.w3.org/2000/svg">
<path d="M400 0H0V400H400V0Z" fill="white"/>
<path d="M116.433 344.933C109.3 343.4 23.5 329.666 29.8 228.3C36.1 126.933 44.0333 96.4662 77.4 85.2995C110.767 74.1328 191.833 21.3661 255.467 71.5661C319.1 121.766 387.767 166.733 360.5 246.866C333.233 327 328.8 353.7 257.7 349.633C186.633 345.533 150.4 352.166 116.433 344.933Z" fill="#F9F9F9"/>
<path d="M116.433 344.933C109.3 343.4 23.5 329.666 29.8 228.3C36.1 126.933 44.0333 96.4662 77.4 85.2995C110.767 74.1328 191.833 21.3661 255.467 71.5661C319.1 121.766 387.767 166.733 360.5 246.866C333.233 327 328.8 353.7 257.7 349.633C186.633 345.533 150.4 352.166 116.433 344.933Z" fill="#F9F9F9"/>
<path d="M105.3 320C103.767 321.1 102.367 322.4 102.467 324.5C102.7 328.967 110.7 330.033 113.933 330.467C119.733 331.233 125.5 331.1 131.333 331.333C152.433 332.1 173.6 332.233 194.7 331.767C205.533 331.533 216.4 331.167 227.233 330.633C236.767 330.167 247.367 330.767 256.367 327.233C261.767 325.133 266.967 322.5 272.033 319.667C276.233 317.333 281.667 315.1 284.167 310.733C288.533 303.067 273.233 301.567 269.033 300.7C252.467 297.4 235.4 296.8 218.567 296.3C201.433 295.8 184.267 296.1 167.2 297.833C145.8 300 122.933 306.9 105.5 319.833C105.467 319.9 105.367 319.967 105.3 320Z" fill="#E5E5E5"/>
<path d="M272.467 231.832H155.133V312.265H272.467V231.832Z" fill="#E5E5E5"/>
<path d="M272.5 231.833H155.167L170.7 213.866C171.434 213.033 172.467 212.566 173.567 212.566H287C287.834 212.566 288.3 213.566 287.734 214.2L272.5 231.833Z" fill="white"/>
<path d="M272.6 231.299C268.734 231.299 264.867 231.299 261 231.299C251.634 231.299 242.3 231.299 232.933 231.299C221.667 231.299 210.4 231.299 199.1 231.299C189.3 231.299 179.5 231.299 169.7 231.299C166.5 231.299 163.267 231.299 160.067 231.299C159.067 231.299 158.033 231.299 157.033 231.299C156.633 231.299 155.833 231.133 155.467 231.299C155.4 231.333 155.3 231.299 155.267 231.299C155.433 231.566 155.6 231.833 155.8 232.133C159.6 227.733 163.433 223.333 167.233 218.899C168.567 217.333 169.867 215.633 171.333 214.166C172.433 213.066 173.4 213.133 174.7 213.133C184.333 213.133 194 213.133 203.634 213.133C218.9 213.133 234.167 213.133 249.467 213.133C260.734 213.133 271.967 213.133 283.234 213.133C284.2 213.133 285.434 212.933 286.4 213.133C286.5 213.166 286.8 213.066 286.867 213.133C287.7 213.699 286.334 214.833 286.034 215.166C281.667 220.199 277.334 225.233 272.967 230.266C272.6 230.699 272.2 231.133 271.834 231.566C271.167 232.333 272.667 232.633 273.134 232.099C277.1 227.533 281.034 222.966 285 218.366C285.9 217.333 286.8 216.299 287.7 215.266C288.167 214.733 288.9 214.099 288.8 213.333C288.667 211.966 287.234 211.999 286.2 211.999C276.434 211.999 266.667 211.999 256.9 211.999C241.167 211.999 225.4 211.999 209.667 211.999C198.533 211.999 187.4 211.999 176.233 211.999C175.4 211.999 174.567 211.966 173.767 211.999C171.633 212.066 170.367 213.166 169.067 214.666C164.6 219.833 160.133 224.999 155.633 230.166C155.233 230.633 154.867 231.066 154.467 231.533C154.067 231.966 154.467 232.366 155 232.366C158.867 232.366 162.733 232.366 166.6 232.366C175.967 232.366 185.3 232.366 194.667 232.366C205.933 232.366 217.2 232.366 228.5 232.366C238.3 232.366 248.1 232.366 257.9 232.366C261.1 232.366 264.334 232.366 267.534 232.366C269.034 232.366 270.634 232.499 272.134 232.366C272.2 232.366 272.267 232.366 272.334 232.366C273.234 232.399 273.734 231.299 272.6 231.299Z" fill="#6A79A8"/>
<path d="M155.3 231.832L126.5 243.065V323.499L155.3 312.699V231.832Z" fill="#F7F7F7"/>
<path d="M155.433 231.532C147.033 234.798 138.633 238.065 130.233 241.332C129.033 241.798 127.833 242.265 126.633 242.732C126.033 242.965 125.367 243.765 126.433 243.332C134.833 240.065 143.233 236.798 151.633 233.532C152.833 233.065 154.033 232.598 155.233 232.132C155.8 231.898 156.5 231.132 155.433 231.532Z" fill="#6A79A8"/>
<path d="M156 313.133C156 304.433 156 295.766 156 287.066C156 273.233 156 259.399 156 245.566C156 242.399 156 239.266 156 236.099C156 235.633 154.633 234.899 154.633 235.233C154.633 243.933 154.633 252.599 154.633 261.299C154.633 275.133 154.633 288.966 154.633 302.799C154.633 305.966 154.633 309.099 154.633 312.266C154.633 312.699 156 313.466 156 313.133Z" fill="#6A79A8"/>
<path d="M155.3 231.831L126.467 243.065L112.667 229.598C111.333 228.298 111.8 226.065 113.533 225.431L137.167 216.565C138.067 216.231 139.1 216.431 139.8 217.098L155.3 231.831Z" fill="#F2F2F2"/>
<path d="M154.567 232.132L126.5 243.065L114.767 231.432C113.433 230.132 113.9 227.899 115.633 227.265C118.367 226.265 121.067 225.232 123.8 224.232C127.8 222.765 132.633 219.699 137.033 220.665C140.2 221.299 154.233 231.832 154.567 232.132Z" fill="white"/>
<path d="M155.033 231.232C146.633 234.498 138.233 237.765 129.833 241.032C128.633 241.498 127.433 241.965 126.233 242.432C126.567 242.498 126.867 242.598 127.2 242.665C123.7 239.232 120.167 235.832 116.667 232.398C115.833 231.598 115 230.765 114.167 229.965C113.7 229.498 113.033 228.998 112.833 228.365C112.133 226.065 115.433 225.465 116.933 224.898C122.533 222.798 128.133 220.698 133.733 218.598C134.9 218.165 137.267 216.731 138.6 217.231C139.167 217.431 139.667 218.065 140.067 218.465C140.9 219.265 141.767 220.065 142.6 220.865C146.6 224.665 150.6 228.432 154.6 232.232C155.2 232.798 156.7 232.132 156 231.465C152.2 227.865 148.433 224.298 144.633 220.698C143.267 219.398 141.9 217.998 140.467 216.731C138.6 215.131 136.8 215.998 134.867 216.731C128.967 218.931 123.067 221.165 117.2 223.365C115.7 223.931 113.867 224.331 112.533 225.198C111.1 226.132 110.633 228.065 111.6 229.532C111.967 230.098 112.533 230.532 113 230.998C117.267 235.165 121.533 239.298 125.8 243.465C126.033 243.698 126.433 243.832 126.767 243.698C135.167 240.432 143.567 237.165 151.967 233.898C153.167 233.432 154.367 232.965 155.567 232.498C156.6 232.065 155.967 230.865 155.033 231.232Z" fill="#6A79A8"/>
<path d="M247.033 230.435C247.6 225.035 244.367 219.401 238.2 218.568C232.9 217.835 228 221.168 226.6 226.168C226.633 220.968 222.8 216.401 217.5 215.668C212.8 215.035 208.467 217.668 206.567 221.935C204.367 226.801 206.267 231.235 209.4 235.068C212.267 238.601 223.767 251.568 223.767 251.568C223.767 251.568 240.833 240.468 244.233 236.701C245.867 234.934 246.8 232.701 247.033 230.435Z" fill="#E5E5E5"/>
<path d="M245.4 229.731C245.967 224.331 242.733 218.698 236.567 217.865C231.267 217.131 226.367 220.465 224.967 225.465C225 220.265 221.167 215.698 215.867 214.965C211.167 214.331 206.833 216.965 204.933 221.231C202.733 226.098 204.633 230.531 207.767 234.365C210.633 237.898 222.133 250.865 222.133 250.865C222.133 250.865 239.2 239.765 242.6 235.998C244.233 234.231 245.133 231.998 245.4 229.731Z" fill="#EA8571"/>
<path d="M245.3 229.733C245.667 225.767 243.967 221.667 240.1 219.7C233.967 216.6 228.533 221.133 224.9 225.733C224.933 218.367 216.233 212.867 210.1 218.033C207.8 219.967 206.633 223.067 206.8 226.1C207.067 231.067 211.033 234.8 213.933 238.5C216.5 241.833 219.067 245.167 221.633 248.5C221.7 248.567 222.7 249.967 222.733 249.933C222.733 249.933 239.167 239.8 242.567 236C244.2 234.3 245.1 232.033 245.3 229.733Z" fill="#F9AB98"/>
<path d="M246.167 229.566C246.667 223.866 243.267 218.466 237.5 217.333C231.6 216.166 225.833 219.733 224.1 225.433C224.633 225.399 225.2 225.333 225.733 225.299C225.633 220.266 222.367 215.833 217.433 214.566C212.533 213.333 207.4 215.499 204.767 219.799C201.567 225.066 203.633 230.599 207.267 234.999C209.767 238.033 212.4 240.966 214.967 243.933C217.067 246.333 219.2 248.733 221.333 251.133C221.667 251.499 222.233 251.366 222.6 251.133C226.467 248.633 230.267 246.033 234.033 243.399C239.1 239.866 245.3 236.266 246.167 229.566C246.267 228.766 244.633 228.999 244.533 229.699C243.667 236.299 237 239.899 232.033 243.366C228.567 245.799 225.067 248.166 221.533 250.466C221.967 250.466 222.367 250.466 222.8 250.466C219.033 246.199 215.267 241.966 211.567 237.633C209.1 234.766 206.267 231.866 205.167 228.133C203.567 222.666 207.1 216.333 212.9 215.433C218.9 214.499 224 219.599 224.1 225.399C224.1 226.266 225.533 225.866 225.733 225.266C227.333 220.033 232.8 216.899 238.1 218.733C242.633 220.299 244.933 225.066 244.533 229.633C244.467 230.499 246.1 230.266 246.167 229.566Z" fill="#6A79A8"/>
<path d="M250.767 108.632C251.867 104.799 250.233 100.332 245.867 98.9323C242.133 97.7323 238.167 99.5323 236.533 102.966C237.2 99.1989 235.033 95.4323 231.267 94.2323C227.933 93.1656 224.467 94.5323 222.533 97.399C220.333 100.666 221.133 104.099 222.9 107.266C224.533 110.199 231.2 121.032 231.2 121.032C231.2 121.032 244.967 115.166 247.9 112.866C249.367 111.732 250.3 110.232 250.767 108.632Z" fill="#E5E5E5"/>
<path d="M249.666 107.933C250.766 104.1 249.133 99.6331 244.766 98.2331C241.033 97.0331 237.066 98.8331 235.433 102.266C236.1 98.4997 233.933 94.7331 230.166 93.5331C226.833 92.4664 223.366 93.8331 221.433 96.6997C219.233 99.9664 220.033 103.4 221.8 106.566C223.433 109.5 230.1 120.333 230.1 120.333C230.1 120.333 243.866 114.466 246.8 112.166C248.266 111.033 249.2 109.533 249.666 107.933Z" fill="#EA8571"/>
<path d="M249.633 107.9C250.4 105.066 249.7 101.9 247.133 99.9997C243.067 96.9997 238.567 99.5664 235.367 102.433C236.333 97.0997 230.733 92.033 225.633 94.9997C223.733 96.133 222.467 98.1997 222.233 100.4C221.8 104.033 224.2 107.233 225.833 110.3C227.267 113.033 228.7 115.766 230.133 118.533C230.167 118.6 230.733 119.733 230.767 119.733C230.767 119.733 243.933 114.466 246.867 112.166C248.233 111.066 249.167 109.533 249.633 107.9Z" fill="#F9AB98"/>
<path d="M250.467 107.767C251.533 103.667 249.733 99.3003 245.667 97.7669C241.433 96.1669 236.7 98.1336 234.633 102.1C235.167 102.1 235.7 102.1 236.2 102.1C236.767 98.3336 234.833 94.667 231.267 93.167C227.833 91.7336 223.733 92.8003 221.333 95.6003C216.133 101.6 222.367 109.134 225.633 114.467C226.867 116.5 228.133 118.534 229.367 120.567C229.567 120.9 230.167 120.8 230.467 120.667C233.7 119.3 236.9 117.834 240.1 116.334C244.267 114.367 248.967 112.534 250.467 107.767C250.7 107.067 249.067 107.234 248.833 107.9C247.367 112.467 242 114.234 238.033 116.067C235.3 117.334 232.533 118.567 229.767 119.767C230.133 119.8 230.5 119.834 230.867 119.867C228.2 115.534 225.5 111.234 222.967 106.834C221.9 104.967 220.9 102.9 220.933 100.7C220.933 97.867 222.767 95.1336 225.433 94.067C230.667 92.0003 235.367 97.2003 234.633 102.234C234.5 103.034 235.967 102.7 236.2 102.234C238.1 98.5336 242.633 97.1003 246.167 99.5336C248.867 101.4 249.667 104.834 248.867 107.867C248.667 108.634 250.3 108.434 250.467 107.767Z" fill="#6A79A8"/>
<path d="M213 135.132C208.3 122.866 195.133 114.366 180.933 119.332C168.767 123.566 161.867 136.132 164.367 148.432C158.7 137.199 145.467 131.599 133.267 135.866C122.433 139.632 116.067 150.132 116.633 161.432C117.267 174.332 126.267 181.799 137.167 186.632C147.233 191.099 186.233 206.332 186.233 206.332C186.233 206.332 210.8 163.699 213.967 151.832C215.467 146.066 214.967 140.266 213 135.132Z" fill="#E5E5E5"/>
<path d="M208.733 135.433C204.033 123.166 190.867 114.666 176.667 119.633C164.5 123.866 157.6 136.433 160.1 148.733C154.433 137.5 141.2 131.9 129 136.166C118.167 139.933 111.8 150.433 112.367 161.733C113 174.633 122 182.1 132.9 186.933C142.967 191.4 181.967 206.633 181.967 206.633C181.967 206.633 206.533 164 209.7 152.133C211.167 146.366 210.7 140.566 208.733 135.433Z" fill="#EA8571"/>
<path d="M208.567 135.498C205 126.531 196.833 119.598 186.367 119.665C169.767 119.765 163.033 135.465 160.333 149.365C152.3 133.431 127.5 131.198 120.067 149.065C117.267 155.765 118.133 163.765 121.8 170.031C127.867 180.398 140.467 184.065 150.8 188.898C160 193.231 169.2 197.598 178.367 201.965C178.567 202.065 182.3 203.931 182.333 203.865C182.333 203.865 206.533 163.965 209.7 152.098C211.133 146.531 210.633 140.698 208.567 135.498Z" fill="#F9AB98"/>
<path d="M209.333 134.999C205.6 125.499 196.9 118.099 186.5 117.466C176.167 116.799 166.033 122.632 161.367 131.866C158.733 137.066 157.967 142.999 159.1 148.732C159.6 148.532 160.133 148.366 160.633 148.166C154.7 136.666 140.9 131.199 128.667 135.432C116.433 139.666 109.5 152.532 111.733 165.099C113.833 176.966 123.933 183.699 134.267 188.099C143 191.832 151.867 195.299 160.7 198.799C167.567 201.532 174.4 204.232 181.267 206.899C181.7 207.066 182.3 206.832 182.5 206.466C186.1 200.199 189.633 193.899 193.067 187.532C198.5 177.566 204.033 167.532 208.4 157.032C211.367 149.899 212.1 142.432 209.333 134.999C209.067 134.299 207.467 134.766 207.733 135.432C210.333 142.466 209.833 149.599 207.067 156.399C205.133 161.099 202.9 165.699 200.6 170.232C195.6 180.132 190.233 189.899 184.8 199.566C183.533 201.799 182.267 204.066 180.967 206.299C181.367 206.166 181.8 205.999 182.2 205.866C168.233 200.399 154.267 194.932 140.433 189.232C131.633 185.632 122.233 181.866 116.833 173.566C109.867 162.899 112.533 147.432 122.733 139.799C128.633 135.399 136.467 133.999 143.567 135.999C150.367 137.899 155.967 142.632 159.2 148.866C159.5 149.432 160.867 148.932 160.733 148.299C158.9 138.899 162.533 128.999 170.3 123.299C178.567 117.232 189.8 117.066 198.167 122.999C202.533 126.099 205.833 130.499 207.767 135.466C208 136.132 209.6 135.666 209.333 134.999Z" fill="#6A79A8"/>
<path d="M285.266 177.099C287.6 170.032 284.866 161.566 276.866 158.666C270 156.166 262.466 159.199 259.166 165.499C260.7 158.532 256.933 151.332 250.033 148.832C243.933 146.599 237.366 148.899 233.566 154.066C229.2 159.966 230.466 166.432 233.533 172.466C236.333 178.032 247.967 198.699 247.967 198.699C247.967 198.699 274.033 188.832 279.666 184.766C282.433 182.766 284.3 180.066 285.266 177.099Z" fill="#E5E5E5"/>
<path d="M283.266 175.701C285.6 168.634 282.866 160.167 274.866 157.267C268 154.767 260.466 157.801 257.166 164.101C258.7 157.134 254.933 149.934 248.033 147.434C241.933 145.201 235.366 147.501 231.566 152.667C227.2 158.567 228.466 165.034 231.533 171.067C234.333 176.634 245.967 197.301 245.967 197.301C245.967 197.301 272.033 187.434 277.666 183.367C280.433 181.367 282.3 178.667 283.266 175.701Z" fill="#EA8571"/>
<path d="M283.167 175.667C284.833 170.467 283.733 164.467 279.133 160.767C271.8 154.867 263.233 159.301 257.067 164.434C259.267 154.567 249.2 144.701 239.5 149.834C235.867 151.767 233.367 155.567 232.733 159.634C231.667 166.367 235.867 172.501 238.667 178.301C241.167 183.501 243.6 188.701 246.067 193.934C246.133 194.067 247.1 196.201 247.133 196.201C247.133 196.201 272.067 187.401 277.7 183.334C280.333 181.434 282.233 178.701 283.167 175.667Z" fill="#F9AB98"/>
<path d="M284.067 175.466C286.333 168.266 283.5 160.199 276.433 156.999C269.067 153.666 260.267 156.766 256.4 163.799C256.933 163.799 257.467 163.799 257.967 163.799C259.367 156.933 255.867 149.866 249.4 147.033C242.633 144.066 234.7 146.699 230.533 152.699C226.133 159.033 228.167 166.266 231.5 172.566C233.967 177.266 236.567 181.899 239.167 186.566C241.167 190.199 243.2 193.833 245.233 197.433C245.433 197.766 246.067 197.633 246.333 197.533C250.3 196.033 254.267 194.466 258.2 192.866C264.233 190.399 270.433 187.999 276.133 184.799C279.833 182.733 282.633 179.666 284.033 175.599C284.333 174.733 282.733 174.799 282.5 175.433C281.2 179.166 278.733 182.033 275.3 183.966C272.767 185.399 270.1 186.599 267.433 187.766C261.633 190.366 255.7 192.733 249.767 195.033C248.367 195.566 247 196.099 245.6 196.633C245.967 196.666 246.333 196.699 246.7 196.733C242.833 189.866 239 183.033 235.267 176.099C232.7 171.399 229.667 166.499 229.567 160.966C229.433 153.133 236.4 146.166 244.367 146.966C252.633 147.799 258 155.999 256.367 163.933C256.2 164.733 257.7 164.366 257.933 163.933C261.667 157.133 270.3 154.666 276.967 158.799C282.633 162.333 284.4 169.399 282.467 175.533C282.233 176.333 283.867 176.133 284.067 175.466Z" fill="#6A79A8"/>
<path d="M243.633 243.066H125.933V323.5H243.633V243.066Z" fill="#F2F2F2"/>
<path d="M243.667 244.73C239.9 250.364 235.533 257.93 232.833 262.764C231.2 265.697 228.1 267.497 224.767 267.497L125.967 267.73V323.497H243.667V244.73Z" fill="white"/>
<path d="M272.5 231.832L243.667 243.065V323.499L272.5 312.699V231.832Z" fill="#E5E5E5"/>
<path d="M272.5 258.498L262.9 262.332C259.6 263.665 255.833 262.598 253.7 259.765L243.667 246.398V323.498L272.5 312.698V258.498Z" fill="#F2F2F2"/>
<path d="M243 246.265C243 254.598 243 262.965 243 271.298C243 284.598 243 297.865 243 311.165C243 314.198 243 317.231 243 320.265C243 320.965 244.333 321.765 244.333 320.731C244.333 312.398 244.333 304.031 244.333 295.698C244.333 282.398 244.333 269.131 244.333 255.831C244.333 252.798 244.333 249.765 244.333 246.731C244.333 246.031 243 245.265 243 246.265Z" fill="#6A79A8"/>
<path d="M125.4 243.299C131.5 243.299 137.567 243.299 143.667 243.299C157.1 243.299 170.5 243.299 183.933 243.299C197.4 243.299 210.867 243.299 224.367 243.299C228.867 243.299 233.333 243.299 237.833 243.299C239.6 243.299 241.4 243.432 243.133 243.299C244.367 243.199 245.6 242.532 246.733 242.099C249.5 241.032 252.267 239.932 255.033 238.866C260.7 236.666 266.4 234.432 272.067 232.232C272.4 232.099 272.767 231.966 273.1 231.832C273.733 231.566 272.167 231.766 271.9 231.866C267.567 233.566 263.2 235.232 258.867 236.932C253.733 238.932 248.4 240.666 243.4 242.966C242.467 243.399 244.433 242.899 244.133 242.832C243.933 242.799 243.7 242.832 243.5 242.832C242.467 242.832 241.433 242.832 240.4 242.832C236.4 242.832 232.367 242.832 228.367 242.832C215.367 242.832 202.367 242.832 189.333 242.832C175.767 242.832 162.2 242.832 148.633 242.832C141.367 242.832 134.067 242.632 126.8 242.832C126.7 242.832 126.6 242.832 126.5 242.832C126.233 242.832 124.7 243.299 125.4 243.299Z" fill="#6A79A8"/>
<path d="M271.7 256.963C271.7 273.296 271.7 289.663 271.7 305.996C271.7 308.263 271.7 310.53 271.7 312.83C271.9 312.596 272.133 312.33 272.333 312.096C268 313.73 263.667 315.363 259.333 316.963C256.067 318.197 252.833 319.397 249.567 320.63C247.733 321.33 245.567 321.83 243.833 322.763C243.267 323.063 244 322.83 243.833 322.83C243.6 322.83 243.4 322.83 243.167 322.83C242.133 322.83 241.1 322.83 240.067 322.83C236 322.83 231.933 322.83 227.833 322.83C214.9 322.83 201.967 322.83 189.033 322.83C175.433 322.83 161.8 322.83 148.2 322.83C143.333 322.83 138.467 322.83 133.6 322.83C132.067 322.83 130.533 322.83 129.033 322.83C128.3 322.83 127.2 322.63 126.5 322.83C126.4 322.863 126.267 322.83 126.2 322.83C126.367 323.03 126.533 323.23 126.733 323.43C126.733 316.796 126.733 310.163 126.733 303.53C126.733 292.996 126.733 282.496 126.733 271.963C126.733 269.53 126.733 267.063 126.733 264.63C126.733 263.663 125.167 264.03 125.167 264.863C125.167 271.496 125.167 278.13 125.167 284.763C125.167 295.296 125.167 305.796 125.167 316.33C125.167 318.763 125.167 321.23 125.167 323.663C125.167 323.963 125.367 324.263 125.7 324.263C131.7 324.263 137.7 324.263 143.733 324.263C157 324.263 170.3 324.263 183.567 324.263C197 324.263 210.467 324.263 223.9 324.263C228.467 324.263 233.033 324.263 237.567 324.263C239.467 324.263 241.467 324.463 243.367 324.263C244.333 324.163 245.267 323.663 246.167 323.33C248.9 322.297 251.633 321.296 254.367 320.263C260.1 318.13 265.833 315.963 271.567 313.83C271.933 313.696 272.267 313.563 272.633 313.43C272.9 313.33 273.267 313.03 273.267 312.696C273.267 296.363 273.267 279.996 273.267 263.663C273.267 261.396 273.267 259.13 273.267 256.83C273.267 255.763 271.7 256.13 271.7 256.963Z" fill="#6A79A8"/>
<path d="M243.667 243.062H125.933L110.433 260.996C110 261.529 110.367 262.329 111.033 262.329H226.633C226.867 262.329 227.1 262.229 227.233 262.063L243.667 243.062Z" fill="#F2F2F2"/>
<path d="M243.667 243.062H127.1C125.3 246.529 123.6 250.029 121.7 253.462C120.533 255.562 120.3 258.996 123.7 258.996H223.667C225.567 258.996 227.4 258.262 228.8 256.962L243.667 243.062Z" fill="white"/>
<path d="M244.2 242.797C238.533 242.797 232.833 242.797 227.167 242.797C214.433 242.797 201.733 242.797 189 242.797C175.767 242.797 162.533 242.797 149.3 242.797C141.9 242.797 134.533 242.797 127.133 242.797C126.467 242.797 125.7 242.73 125.133 243.163C124.733 243.463 124.4 243.997 124.1 244.363C123.267 245.33 122.467 246.263 121.633 247.23C117.8 251.663 113.933 256.13 110.1 260.563C109.333 261.43 109.233 262.463 110.667 262.563C111.367 262.63 112.067 262.563 112.767 262.563C116.2 262.563 119.667 262.563 123.1 262.563C135.233 262.563 147.367 262.563 159.5 262.563C172.967 262.563 186.467 262.563 199.933 262.563C208.167 262.563 216.433 262.563 224.667 262.563C225.133 262.563 225.6 262.597 226.067 262.563C227.733 262.463 228.3 261.63 229.3 260.463C233.367 255.763 237.4 251.097 241.467 246.397C242.467 245.263 243.467 244.097 244.467 242.963C244.5 242.93 243.167 242.83 242.867 243.163C239.033 247.597 235.2 251.997 231.4 256.43C230.333 257.663 229.267 258.897 228.2 260.13C227.9 260.463 226.6 261.563 226.567 262.03C226.567 262.263 227.6 262.097 226.967 262.063C226.633 262.03 226.3 262.063 225.967 262.063C216.067 262.063 206.167 262.063 196.267 262.063C180.667 262.063 165.1 262.063 149.5 262.063C138.067 262.063 126.667 262.063 115.233 262.063C114.233 262.063 113.067 262.197 112.067 262.063C110.4 261.83 111.667 260.43 112.333 259.663C116.767 254.53 121.2 249.397 125.633 244.297C126.033 243.83 126.4 243.397 126.8 242.93C126.367 243.063 125.9 243.163 125.467 243.297C129.367 243.297 133.267 243.297 137.167 243.297C146.533 243.297 155.933 243.297 165.3 243.297C176.633 243.297 187.967 243.297 199.333 243.297C209.1 243.297 218.867 243.297 228.633 243.297C233.4 243.297 238.2 243.463 243 243.297C243.067 243.297 243.133 243.297 243.2 243.297C243.4 243.297 244.933 242.797 244.2 242.797Z" fill="#6A79A8"/>
<path d="M272.5 231.832L243.667 243.065L259.767 258.632C260.133 258.965 260.633 259.065 261.1 258.899L287.333 249.065C288.2 248.732 288.433 247.632 287.767 246.999L272.5 231.832Z" fill="#F2F2F2"/>
<path d="M271.567 232.199L244.033 243.199L258.5 257.833C258.8 258.166 259.267 258.266 259.7 258.099C263.333 256.666 266.933 255.266 270.567 253.833C272.767 252.966 274.933 252.099 277.133 251.266C279.267 250.433 282.267 249.399 282.033 246.499C281.9 245.199 281 244.133 280.133 243.199C279.133 242.133 272.033 232.699 271.567 232.199Z" fill="white"/>
<path d="M272.133 231.265C263.733 234.532 255.333 237.798 246.933 241.065C245.733 241.532 244.533 241.998 243.333 242.465C242.933 242.632 242.667 243.032 243.033 243.398C247.067 247.298 251.067 251.165 255.1 255.065C256.433 256.365 257.733 257.898 259.2 259.032C260.767 260.232 262.833 258.965 264.367 258.365C270.667 255.998 276.967 253.632 283.267 251.298C284.767 250.732 286.433 250.332 287.833 249.565C290.467 248.165 287.733 245.965 286.567 244.798C282.1 240.365 277.6 235.932 273.133 231.498C272.567 230.932 271.133 231.498 271.867 232.232C275.533 235.865 279.167 239.465 282.833 243.098C283.8 244.065 284.8 245.032 285.767 245.998C286.133 246.365 286.9 246.865 287.133 247.365C287.9 248.865 284.333 249.532 283.4 249.865C277.433 252.098 271.467 254.332 265.5 256.565C264.433 256.965 263.333 257.365 262.267 257.798C261.9 257.932 261.2 258.365 260.8 258.332C260.267 258.332 259.967 257.865 259.6 257.498C258.733 256.665 257.9 255.832 257.033 254.998C252.8 250.898 248.567 246.832 244.367 242.732C244.267 243.032 244.167 243.365 244.067 243.665C252.467 240.398 260.867 237.132 269.267 233.865C270.467 233.398 271.667 232.932 272.867 232.465C273.833 232.032 272.933 230.932 272.133 231.265Z" fill="#6A79A8"/>
<path d="M234.6 264.531C234.6 269.097 234.6 273.631 234.6 278.198C234.6 278.731 236.067 278.031 236.067 277.498C236.067 272.931 236.067 268.398 236.067 263.831C236.067 263.264 234.6 263.964 234.6 264.531Z" fill="#6A79A8"/>
<path d="M234.7 280.296C234.7 281.029 234.7 281.729 234.7 282.463C234.7 282.862 234.933 283.262 235.267 283.462C235.467 283.596 235.967 283.696 235.967 283.296C235.967 282.562 235.967 281.863 235.967 281.129C235.967 280.729 235.733 280.329 235.4 280.129C235.2 279.996 234.7 279.896 234.7 280.296Z" fill="#6A79A8"/>
<path d="M234.5 285.296C234.5 287.163 234.5 289.029 234.5 290.896C234.5 291.729 236.133 291.996 236.133 291.063C236.133 289.196 236.133 287.329 236.133 285.463C236.167 284.629 234.5 284.363 234.5 285.296Z" fill="#6A79A8"/>
<path d="M177.933 280.996H143.7V308.063H177.933V280.996Z" fill="#F9AB98"/>
<path d="M176.367 305.764C166.367 305.764 156.367 305.764 146.333 305.764C144.933 305.764 143.533 305.764 142.1 305.764C142.333 305.931 142.6 306.131 142.833 306.297C142.833 297.431 142.833 288.597 142.833 279.73C142.533 279.964 142.233 280.164 141.933 280.397C151.933 280.397 161.933 280.397 171.967 280.397C173.367 280.397 174.767 280.397 176.2 280.397C175.967 280.23 175.7 280.03 175.467 279.864C175.467 288.73 175.467 297.564 175.467 306.431C175.467 307.297 177.1 307.064 177.1 306.331C177.1 297.464 177.1 288.63 177.1 279.764C177.1 279.33 176.7 279.23 176.367 279.23C166.367 279.23 156.367 279.23 146.333 279.23C144.933 279.23 143.533 279.23 142.1 279.23C141.767 279.23 141.2 279.497 141.2 279.897C141.2 288.764 141.2 297.597 141.2 306.464C141.2 306.897 141.6 306.997 141.933 306.997C151.933 306.997 161.933 306.997 171.967 306.997C173.367 306.997 174.767 306.997 176.2 306.997C177.167 306.997 177.433 305.764 176.367 305.764Z" fill="#6A79A8"/>
<path d="M197.167 296.528C204.533 296.528 211.933 296.528 219.3 296.528C219.833 296.528 221.033 295.762 219.967 295.762C212.6 295.762 205.2 295.762 197.833 295.762C197.3 295.762 196.1 296.528 197.167 296.528Z" fill="#6A79A8"/>
<path d="M197.167 291.595C204.533 291.595 211.933 291.595 219.3 291.595C219.833 291.595 221.033 290.762 219.967 290.762C212.6 290.762 205.2 290.762 197.833 290.762C197.267 290.795 196.1 291.595 197.167 291.595Z" fill="#6A79A8"/>
<path d="M197.2 286.763C204.567 286.763 211.967 286.763 219.333 286.763C219.967 286.763 221.033 285.797 219.933 285.797C212.567 285.797 205.167 285.797 197.8 285.797C197.167 285.797 196.1 286.763 197.2 286.763Z" fill="#6A79A8"/>
<path d="M197.167 300.265C198.8 300.265 200.433 300.265 202.067 300.265C202.567 300.265 203.8 299.531 202.733 299.531C201.1 299.531 199.467 299.531 197.833 299.531C197.333 299.531 196.1 300.265 197.167 300.265Z" fill="#6A79A8"/>
<path d="M205.567 300.233C207.2 300.233 208.833 300.233 210.467 300.233C210.8 300.233 211.367 300.166 211.6 299.933C211.767 299.766 211.9 299.566 211.5 299.566C209.867 299.566 208.233 299.566 206.6 299.566C206.267 299.566 205.7 299.633 205.467 299.866C205.333 300.066 205.2 300.233 205.567 300.233Z" fill="#6A79A8"/>
<path d="M214.4 300.365C216.033 300.365 217.667 300.365 219.3 300.365C219.6 300.365 220.233 300.265 220.367 299.931C220.5 299.598 220.267 299.465 219.933 299.465C218.3 299.465 216.667 299.465 215.033 299.465C214.733 299.465 214.1 299.565 213.967 299.898C213.833 300.198 214.067 300.365 214.4 300.365Z" fill="#6A79A8"/>
<path d="M172.067 289.099C171.967 285.799 169.567 282.733 165.8 282.733C162.567 282.733 159.933 285.133 159.5 288.233C159.1 285.133 156.433 282.699 153.2 282.699C150.333 282.699 147.967 284.633 147.167 287.366C146.267 290.466 147.767 292.966 149.933 294.999C151.933 296.866 159.9 303.666 159.9 303.666C159.9 303.666 169.2 295.633 170.933 293.099C171.767 291.866 172.133 290.466 172.067 289.099Z" fill="white"/>
<path d="M172.9 288.865C172.667 285.065 169.767 282.199 165.933 282.332C162.433 282.432 159.333 284.832 158.733 288.332C159.267 288.232 159.8 288.099 160.333 287.999C159.633 283.932 155.7 281.565 151.733 282.532C147.9 283.465 145.1 287.465 146.433 291.365C147.5 294.532 150.8 296.765 153.233 298.865C155.2 300.565 157.167 302.265 159.167 303.965C159.5 304.232 160.267 303.999 160.567 303.765C162.7 301.932 164.8 300.032 166.867 298.099C169.567 295.532 172.867 292.965 172.9 288.865C172.9 288.465 171.3 288.732 171.3 289.299C171.267 293.365 167.567 296.099 164.833 298.632C163 300.332 161.167 301.965 159.3 303.599C159.767 303.532 160.233 303.465 160.7 303.399C157.467 300.632 154.167 297.865 151.033 294.965C148.167 292.332 146.4 288.332 149.233 284.932C152.567 280.965 158 284.099 158.733 288.432C158.8 288.899 160.267 288.499 160.333 288.099C160.9 284.865 163.8 282.232 167.233 283.399C169.767 284.265 171.133 286.732 171.3 289.299C171.3 289.732 172.933 289.432 172.9 288.865Z" fill="#6A79A8"/>
</svg>
