
<svg width="15px" height="18px" viewBox="0 0 15 18" version="1.1" xmlns="http://www.w3.org/2000/svg" xmlns:xlink="http://www.w3.org/1999/xlink">
    <g id="Assets" stroke="none" stroke-width="1" fill="none" fill-rule="evenodd">
        <path d="M4.20249668,5.92274881 C4.86168583,6.07651929 5.50246288,5.68245275 5.65479419,5.03311783 C5.80585916,4.3891497 5.4077233,3.74146765 4.77116091,3.59129666 C4.11472937,3.43648134 3.47460641,3.83101146 3.32289349,4.4816826 C3.171271,5.13194659 3.56540005,5.77412433 4.20249668,5.92274881 Z M5.00073735,2.61800603 C6.17577579,2.89520853 6.90512693,4.0817071 6.62836393,5.26150777 C6.3495694,6.44991099 5.170044,7.17529823 3.97531807,6.89660192 C2.79786544,6.62192101 2.07257833,5.44016788 2.3490165,4.25460642 C2.62663982,3.06392672 3.80695201,2.33645913 5.00073735,2.61800603 Z M13.7926098,14.6405678 C13.8736486,14.5891123 13.8793326,14.5640479 13.8270098,14.4788278 C13.6620317,14.2101712 13.4879541,13.9309363 13.2755961,13.5935081 C13.2152208,13.4975801 13.2006982,13.4941336 13.1099844,13.5503143 C12.9860516,13.627091 12.846647,13.7132881 12.4702417,13.9459149 C11.9090605,14.2926178 11.9090605,14.2926178 11.7222269,14.4079976 L11.2937571,14.672601 L9.78795787,12.1948126 L10.2039281,11.9324822 L11.582418,11.0631465 C11.6557354,11.0164809 11.6633905,10.9838738 11.6214105,10.9152608 C11.5379818,10.7799851 11.4121906,10.5767376 11.2856522,10.3737098 C11.1871356,10.215677 11.1092079,10.0915458 11.0517289,10.0012473 C11.0035507,9.92553754 10.9834457,9.92093791 10.9086231,9.9673894 L9.07563469,11.1071605 L6.8153638,7.38716643 L7.02978164,7.11467165 C7.5381383,6.46862216 7.78487362,5.97550703 7.90115474,5.35690951 C8.27971109,3.34352644 6.8061753,1.42109268 4.77589561,1.27607706 C2.87394943,1.14020533 1.24768333,2.48332235 1.02445444,4.37379044 C0.74591192,6.7326647 2.91335673,8.68017655 5.22238383,8.14536893 C5.48608194,8.08432894 5.56243291,8.13911473 5.7230417,8.3053051 C5.75187202,8.33513734 5.78062492,8.36945434 5.81350089,8.41182564 C5.86509021,8.47831513 5.93121147,8.57073906 6.01347266,8.69070517 C6.1633236,8.9092412 6.36950949,9.22338477 6.62837366,9.6267311 C7.08244485,10.3342371 7.68974808,11.3023216 8.41297215,12.4685811 C8.44751565,12.5242911 8.44751565,12.5242911 8.48205139,12.5800113 C9.05343611,13.50198 9.66136085,14.4896341 10.2664924,15.4772646 C10.4645875,15.8005742 10.6491469,16.1022881 10.8161431,16.3756786 L13.7926098,14.6405678 Z M10.3808757,9.11798812 C10.9217798,8.78218199 11.5532017,8.92663894 11.8953577,9.46432039 C11.9548319,9.55775337 12.0342239,9.68421703 12.1288534,9.83601347 C12.2618566,10.049413 12.3883722,10.2538309 12.4734769,10.39183 C12.8017671,10.928349 12.6515979,11.5680025 12.117608,11.9078757 L11.1533278,12.5159963 L11.6252335,13.2925157 C11.705746,13.2427751 11.8084439,13.1793274 11.9438771,13.0956556 C12.3208189,12.8626972 12.4598467,12.776733 12.5834068,12.7001872 C13.1434964,12.3533135 13.7702266,12.502047 14.1219311,13.0608571 C14.336094,13.4011533 14.5120082,13.6833342 14.6791832,13.9555683 C15.0164397,14.5048695 14.8725392,15.139418 14.3124716,15.4946086 L10.472755,17.7334129 L10.2175934,17.3145614 C10.1776404,17.2489778 10.1776404,17.2489778 9.99707413,16.9531449 C9.82139833,16.6654823 9.62533761,16.3449269 9.41381789,15.9997072 C8.80950786,15.0134174 8.20243735,14.0271511 7.63205135,13.106794 C7.5975868,13.0511886 7.5975868,13.0511886 7.56311621,12.9955961 C6.8423871,11.83336 6.23749167,10.8691137 5.7867874,10.1668538 C5.53295092,9.77134134 5.33166772,9.46466749 5.18873969,9.25622751 C5.17017221,9.22914951 5.15267072,9.20385109 5.13628288,9.18039341 C2.2725465,9.63503635 -0.315736289,7.1959037 0.0313540582,4.25652312 C0.317273884,1.83514154 2.41252606,0.104693583 4.84714641,0.27861863 C7.47479867,0.466302433 9.37266532,2.94233522 8.88393821,5.54167056 C8.75362193,6.23493298 8.49328739,6.80884163 8.02633205,7.4543968 L9.40560175,9.72442343 L10.3808757,9.11798812 Z" id="icn-keywords"
        fill="#333333" fill-rule="nonzero"></path>
    </g>
</svg>