<?xml version="1.0" encoding="UTF-8"?>
<svg width="55px" height="36px" viewBox="0 0 55 36" version="1.1" xmlns="http://www.w3.org/2000/svg" xmlns:xlink="http://www.w3.org/1999/xlink">
    <!-- Generator: Sketch 53.2 (72643) - https://sketchapp.com -->
    <title>MasterCard-light 2</title>
    <desc>Created with Sketch.</desc>
    <defs>
        <rect id="path-1" x="0.693877551" y="0.916897507" width="50" height="32" rx="2"></rect>
        <filter x="-6.0%" y="-9.4%" width="112.0%" height="118.8%" filterUnits="objectBoundingBox" id="filter-2">
            <feOffset dx="0" dy="0" in="SourceAlpha" result="shadowOffsetOuter1"></feOffset>
            <feGaussianBlur stdDeviation="1" in="shadowOffsetOuter1" result="shadowBlurOuter1"></feGaussianBlur>
            <feColorMatrix values="0 0 0 0 0   0 0 0 0 0   0 0 0 0 0  0 0 0 0.07 0" type="matrix" in="shadowBlurOuter1"></feColorMatrix>
        </filter>
    </defs>
    <g id="Page-1" stroke="none" stroke-width="1" fill="none" fill-rule="evenodd">
        <g id="MasterCard-light-2" transform="translate(2.000000, 1.000000)">
            <g id="MasterCard-light">
                <g id="Rectangle">
                    <use fill="black" fill-opacity="1" filter="url(#filter-2)" xlink:href="#path-1"></use>
                    <use fill="#FFFFFF" fill-rule="evenodd" xlink:href="#path-1"></use>
                </g>
                <path d="M29.0643105,17.0449485 C29.0643105,22.7177146 24.6959851,27.3157895 19.3070115,27.3157895 C13.9178837,27.3157895 9.54925,22.7177146 9.54925,17.0449485 C9.54925,11.3723447 13.9178837,6.77378289 19.3070115,6.77378289 C24.6959851,6.77378289 29.0643105,11.3723447 29.0643105,17.0449485" id="Fill-333" fill="#CC0000"></path>
                <path d="M32.4070531,6.77378289 C29.88527,6.77378289 27.5883102,7.78062624 25.8563384,9.43234927 C25.5039919,9.76899171 25.1750838,10.1325785 24.8714645,10.5197011 L26.8429085,10.5197011 C27.1121413,10.864784 27.3602488,11.2275592 27.5867682,11.6075399 L24.1274506,11.6075399 C23.9205145,11.9566807 23.7323908,12.3194559 23.5652382,12.6953787 L28.1486722,12.6953787 C28.3053392,13.0474412 28.4431938,13.4100541 28.5619276,13.7827306 L23.1519828,13.7827306 C23.039417,14.1369031 22.9444299,14.4998407 22.8685636,14.8699201 L28.8450384,14.8699201 C28.9881358,15.5711233 29.0643105,16.2986216 29.0643105,17.0449485 C29.0643105,18.1852152 28.8877517,19.282793 28.5619276,20.3078157 L23.1519828,20.3078157 C23.2707166,20.6801675 23.4085712,21.0432674 23.5649298,21.3958168 L28.1486722,21.3958168 C27.9812113,21.7707657 27.7940127,22.1338656 27.585843,22.4834933 L24.1274506,22.4834933 C24.3530448,22.8623378 24.6016149,23.2256 24.8714645,23.5701959 L26.8422917,23.5701959 C26.5392892,23.9576431 26.2100727,24.3212299 25.8566468,24.6578724 C27.5884644,26.3095954 29.88527,27.3157895 32.4070531,27.3157895 C37.7958725,27.3157895 42.164352,22.7177146 42.164352,17.0449485 C42.164352,11.3728317 37.7958725,6.77378289 32.4070531,6.77378289" id="Fill-334" fill="#FF9900"></path>
                <path d="M17.0284015,18.1694706 C16.9172235,18.1561607 16.8681879,18.1519405 16.7918591,18.1519405 C16.1914051,18.1519405 15.8877858,18.3687941 15.8877858,18.7971448 C15.8877858,19.0609076 16.0359718,19.2285796 16.2672714,19.2285796 C16.6988766,19.2285796 17.0098975,18.796171 17.0284015,18.1694706 L17.0284015,18.1694706 Z M17.7989378,20.0573628 L16.9209243,20.0573628 L16.9411244,19.6182992 C16.6734336,19.9650052 16.3161528,20.1305671 15.8308861,20.1305671 C15.2569545,20.1305671 14.8632825,19.6588781 14.8632825,18.9734195 C14.8632825,17.9415796 15.5477753,17.3398759 16.7229318,17.3398759 C16.8433618,17.3398759 16.9972532,17.3515626 17.1548453,17.3725013 C17.1875357,17.2325853 17.1961709,17.1731778 17.1961709,17.0977011 C17.1961709,16.8172198 17.0117479,16.7120393 16.5169209,16.7120393 C15.9986554,16.7065206 15.5712137,16.8423787 15.3955801,16.9030847 C15.4066825,16.8326398 15.5425325,15.9501301 15.5425325,15.9501301 C16.0702041,15.7868407 16.4183872,15.72581 16.8102088,15.72581 C17.7199875,15.72581 18.2018618,16.1556216 18.2007824,16.9681732 C18.2026328,17.186163 18.1682462,17.454146 18.1150473,17.8076693 C18.0231442,18.421222 17.8257685,19.7371142 17.7989378,20.0573628 L17.7989378,20.0573628 Z" id="Fill-336" fill="#000066"></path>
                <polyline id="Fill-337" fill="#000066" points="14.4199582 20.0573628 13.3604515 20.0573628 13.9676902 16.0527135 12.6124285 20.0573628 11.8906193 20.0573628 11.8013377 16.0751131 11.1635674 20.0573628 10.1720629 20.0573628 11.0002698 14.8475206 12.5236094 14.8475206 12.6156667 17.7636817 13.5450287 14.8475206 15.2392216 14.8475206 14.4199582 20.0573628"></polyline>
                <path d="M33.7159008,18.1694706 C33.6047227,18.1561607 33.556304,18.1519405 33.4801293,18.1519405 C32.8792128,18.1519405 32.5759018,18.3687941 32.5759018,18.7971448 C32.5759018,19.0609076 32.723471,19.2285796 32.9553875,19.2285796 C33.3866842,19.2285796 33.6978594,18.796171 33.7159008,18.1694706 L33.7159008,18.1694706 Z M34.4868996,20.0573628 L33.6091945,20.0573628 L33.6290863,19.6182992 C33.3613955,19.9650052 33.0042688,20.1305671 32.5193105,20.1305671 C31.944608,20.1305671 31.5513986,19.6588781 31.5513986,18.9734195 C31.5513986,17.9415796 32.2361997,17.3398759 33.4110478,17.3398759 C33.5313236,17.3398759 33.6849066,17.3515626 33.842653,17.3725013 C33.8754975,17.2325853 33.8839785,17.1731778 33.8839785,17.0977011 C33.8839785,16.8172198 33.6995556,16.7120393 33.2047285,16.7120393 C32.6864631,16.7065206 32.2591755,16.8423787 32.0829252,16.9030847 C32.0946444,16.8326398 32.2308028,15.9501301 32.2308028,15.9501301 C32.758166,15.7868407 33.1066575,15.72581 33.4978623,15.72581 C34.4082577,15.72581 34.8895152,16.1556216 34.88859,16.9681732 C34.8904404,17.186163 34.8563623,17.454146 34.8028549,17.8076693 C34.7112603,18.421222 34.513422,19.7371142 34.4868996,20.0573628 L34.4868996,20.0573628 Z" id="Fill-338" fill="#000066"></path>
                <path d="M22.5066568,19.9929235 C22.216607,20.0890143 21.9907043,20.1305671 21.7455267,20.1305671 C21.2041313,20.1305671 20.9085303,19.8030143 20.9085303,19.1996874 C20.9009746,19.0123753 20.9864012,18.5197476 21.0536323,18.0704581 C21.1150038,17.6745705 21.5131477,15.1791313 21.5131477,15.1791313 L22.5658695,15.1791313 L22.4429723,15.82044 L23.0790463,15.82044 L22.9354863,16.8388078 L22.2972535,16.8388078 C22.1749731,17.6443798 22.0005731,18.6481392 21.9985685,18.7812379 C21.9985685,18.9997147 22.109284,19.0951562 22.3614006,19.0951562 C22.482139,19.0951562 22.5755841,19.082171 22.6469786,19.0552266 L22.5066568,19.9929235" id="Fill-339" fill="#000066"></path>
                <path d="M25.7349832,19.9586749 C25.3732305,20.0750552 25.0245848,20.1318656 24.6546596,20.1305671 C23.4758023,20.1289439 22.8613163,19.4813049 22.8613163,18.2404025 C22.8613163,16.7922232 23.6429549,15.72581 24.7043119,15.72581 C25.5723024,15.72581 26.126959,16.3228066 26.126959,17.2587181 C26.126959,17.569877 26.0890259,17.8730824 25.9969686,18.3009462 L23.9001601,18.3009462 C23.8293824,18.9156352 24.2028543,19.1716068 24.8157984,19.1716068 C25.1922,19.1716068 25.5323647,19.0897998 25.9103083,18.905247 L25.7349832,19.9586749 L25.7349832,19.9586749 Z M25.1431645,17.4470041 C25.1491783,17.3585421 25.2546509,16.6906137 24.6528092,16.6906137 C24.3178873,16.6906137 24.0777982,16.9597328 23.9804982,17.4470041 L25.1431645,17.4470041 L25.1431645,17.4470041 Z" id="Fill-340" fill="#000066"></path>
                <path d="M18.4342408,17.1600302 C18.4342408,17.6955092 18.6809605,18.0651017 19.2407056,18.3428236 C19.6695352,18.5552947 19.7363037,18.6181108 19.7363037,18.8104547 C19.7363037,19.0742175 19.5469464,19.1940064 19.1279856,19.1940064 C18.8117219,19.1940064 18.5178171,19.1417408 18.1787318,19.0263344 C18.1787318,19.0263344 18.0397978,19.9606227 18.0331672,20.0052595 C18.2738731,20.0601221 18.4885191,20.1112515 19.1355414,20.1305671 C20.2531813,20.1305671 20.7694422,19.6825762 20.7694422,18.7143639 C20.7694422,18.1323004 20.5535625,17.7906261 20.0228069,17.5335183 C19.5788657,17.3190995 19.5275172,17.2710541 19.5275172,17.0733537 C19.5275172,16.8443265 19.7037675,16.727297 20.0459368,16.727297 C20.2539523,16.727297 20.5378341,16.7506704 20.8072211,16.7907623 L20.9578743,15.808104 C20.6837071,15.7621687 20.2676761,15.72581 20.0255825,15.72581 C18.8407114,15.72581 18.4303858,16.3771823 18.4342408,17.1600302" id="Fill-341" fill="#000066"></path>
                <path d="M30.8869517,15.8376454 C31.1811649,15.8376454 31.4559489,15.918154 31.8335841,16.1189383 L32.0070589,14.9882482 C31.8513171,14.9239712 31.3052957,14.5472368 30.8426964,14.5472368 C30.1339943,14.5472368 29.5341572,14.9179655 29.1130376,15.5284343 C28.4980889,15.3141778 28.2450471,15.7472357 27.9354139,16.178995 L27.6601673,16.2465183 C27.6809843,16.1044922 27.6999509,15.96344 27.6939371,15.82044 L26.7206281,15.82044 C26.5880163,17.1321119 26.3525533,18.4601778 26.1682845,19.7723367 L26.12002,20.0573628 L27.179835,20.0573628 C27.3567022,18.8474627 27.4533854,18.0730552 27.5122898,17.5484513 L27.9113588,17.3156908 C27.9713425,17.0817941 28.1574616,17.0032334 28.5318586,17.01281 C28.4829773,17.2890711 28.456455,17.5801029 28.456455,17.8811982 C28.456455,19.2675353 29.1679327,20.1305671 30.3077774,20.1305671 C30.601528,20.1305671 30.8537988,20.0899882 31.2443868,19.9779905 L31.4300433,18.7908145 C31.0787763,18.9724456 30.7911937,19.0579859 30.5304419,19.0579859 C29.914568,19.0579859 29.5418671,18.5793174 29.5418671,17.7886783 C29.5418671,16.6412697 30.0957527,15.8376454 30.8869517,15.8376454" id="Fill-342" fill="#000066"></path>
                <path d="M39.8555188,14.8475206 L39.6200558,16.3526727 C39.3309312,15.951591 39.0197561,15.6610461 38.6089679,15.6610461 C38.0745115,15.6610461 37.5880112,16.0876114 37.2694345,16.7157726 C36.8258017,16.6188702 36.3673658,16.4541199 36.3673658,16.4541199 L36.3670574,16.4581778 C36.4023692,16.1070893 36.4173265,15.893482 36.4137799,15.82044 L35.4406252,15.82044 C35.308476,17.1321119 35.0727045,18.4601778 34.88859,19.7723367 L34.8398629,20.0573628 L35.8999863,20.0573628 C36.0430837,19.0795739 36.1524113,18.2666976 36.2330578,17.6229542 C36.5954273,17.2781959 36.7767662,16.9783991 37.1420655,16.997877 C36.9800015,17.4104831 36.885477,17.8854184 36.885477,18.3726897 C36.885477,19.431474 37.3940279,20.1305671 38.16441,20.1305671 C38.552685,20.1305671 38.8505989,19.9895149 39.1411113,19.662936 L39.0911506,20.0570381 L40.0934491,20.0570381 L40.9003765,14.8475206 L39.8555188,14.8475206 L39.8555188,14.8475206 Z M38.5307886,19.0786 C38.1702695,19.0786 37.987697,18.7971448 37.987697,18.2433242 C37.987697,17.4104831 38.3289411,16.8201415 38.8092734,16.8201415 C39.1733391,16.8201415 39.3707148,17.1116602 39.3707148,17.6498985 C39.3707148,18.4898815 39.0237653,19.0786 38.5307886,19.0786 L38.5307886,19.0786 Z" id="Fill-343" fill="#000066"></path>
                <polyline id="Fill-344" fill="#FFFFFF" points="14.7246569 19.7481516 13.6654587 19.7481516 14.2725432 15.7435024 12.9175898 19.7481516 12.1954723 19.7481516 12.1063448 15.7667136 11.4684204 19.7481516 10.4769158 19.7481516 11.3051228 14.5387964 12.8284623 14.5387964 12.8710215 17.7636817 13.8989171 14.5387964 15.5440745 14.5387964 14.7246569 19.7481516"></polyline>
                <path d="M17.3332545,17.8609088 C17.2222306,17.8472743 17.1731951,17.843541 17.0968662,17.843541 C16.4964123,17.843541 16.1926387,18.0600699 16.1926387,18.488096 C16.1926387,18.7515342 16.3409789,18.92018 16.5724328,18.92018 C17.0038837,18.92018 17.3149047,18.4877714 17.3332545,17.8609088 L17.3332545,17.8609088 Z M18.1036365,19.7481516 L17.2260856,19.7481516 L17.2461316,19.3094127 C16.9784408,19.6559564 16.6211599,19.8216806 16.1358932,19.8216806 C15.5618075,19.8216806 15.1682897,19.3493423 15.1682897,18.6640461 C15.1682897,17.6320438 15.8529366,17.0311517 17.0280931,17.0311517 C17.1482147,17.0311517 17.3021061,17.0426761 17.4598525,17.0641017 C17.4925428,16.9238611 17.501178,16.8642913 17.501178,16.7884899 C17.501178,16.508171 17.3167551,16.4038021 16.821928,16.4038021 C16.3035084,16.3973095 15.8762208,16.5331676 15.7004331,16.5937113 C15.7116897,16.523591 15.8473855,15.6410813 15.8473855,15.6410813 C16.3752113,15.4781165 16.7233944,15.4165989 17.115216,15.4165989 C18.0248404,15.4165989 18.5065605,15.8468974 18.5057895,16.6591244 C18.5074857,16.8767896 18.4734076,17.1460711 18.4200544,17.4986205 C18.3279972,18.1116863 18.1306215,19.42839 18.1036365,19.7481516 L18.1036365,19.7481516 Z" id="Fill-345" fill="#FFFFFF"></path>
                <path d="M32.3117576,14.6790371 L32.1382829,15.8095649 C31.7600309,15.6094298 31.4860179,15.5284343 31.1921131,15.5284343 C30.4012225,15.5284343 29.8464117,16.3330325 29.8464117,17.4806034 C29.8464117,18.2712425 30.2192667,18.7489371 30.8351406,18.7489371 C31.0960466,18.7489371 31.384246,18.6640461 31.7347421,18.4817657 L31.548623,19.6689417 C31.1586517,19.7807771 30.9062267,19.8216806 30.6126304,19.8216806 C29.4720146,19.8216806 28.7616163,18.9584865 28.7616163,17.572474 C28.7616163,15.7100654 29.7437146,14.408457 31.1475494,14.408457 C31.6101487,14.408457 32.1564785,14.6147601 32.3117576,14.6790371" id="Fill-346" fill="#FFFFFF"></path>
                <path d="M34.0205995,17.8609088 C33.9101925,17.8472743 33.8610027,17.843541 33.784828,17.843541 C33.1846825,17.843541 32.8807548,18.0600699 32.8807548,18.488096 C32.8807548,18.7515342 33.0289408,18.92018 33.2602404,18.92018 C33.6915372,18.92018 34.0028665,18.4877714 34.0205995,17.8609088 L34.0205995,17.8609088 Z M34.7915984,19.7481516 L33.9140475,19.7481516 L33.9339392,19.3094127 C33.6662484,19.6559564 33.3089676,19.8216806 32.8241635,19.8216806 C32.2494609,19.8216806 31.8564057,19.3493423 31.8564057,18.6640461 C31.8564057,17.6320438 32.5404359,17.0311517 33.7159008,17.0311517 C33.8360224,17.0311517 33.9896053,17.0426761 34.1471975,17.0641017 C34.1800421,16.9238611 34.1886772,16.8642913 34.1886772,16.7884899 C34.1886772,16.508171 34.0047169,16.4038021 33.5095815,16.4038021 C32.9916244,16.3973095 32.5644911,16.5331676 32.3883949,16.5937113 C32.3994973,16.523591 32.5353473,15.6410813 32.5353473,15.6410813 C33.0631731,15.4781165 33.4110478,15.4165989 33.8028694,15.4165989 C34.7124939,15.4165989 35.1946766,15.8468974 35.193443,16.6591244 C35.1956018,16.8767896 35.1612152,17.1460711 35.1078621,17.4986205 C35.0161132,18.1116863 34.8187375,19.42839 34.7915984,19.7481516 L34.7915984,19.7481516 Z" id="Fill-347" fill="#FFFFFF"></path>
                <path d="M22.8113555,19.6838747 C22.5216142,19.7799655 22.2954031,19.8216806 22.0505339,19.8216806 C21.5089843,19.8216806 21.2132291,19.4939655 21.2132291,18.8912879 C21.2058275,18.7033265 21.2914084,18.2115103 21.3587937,17.761734 C21.4197026,17.3655217 21.8180006,14.8704071 21.8180006,14.8704071 L22.8710308,14.8704071 L22.7478252,15.5115535 L23.2884496,15.5115535 L23.144427,16.5295966 L22.6021064,16.5295966 C22.479826,17.3359803 22.3054261,18.3390904 22.3032673,18.4721891 C22.3032673,18.6913151 22.4144453,18.7861074 22.6662535,18.7861074 C22.786992,18.7861074 22.8802828,18.7736091 22.9519857,18.7460154 L22.8113555,19.6838747" id="Fill-348" fill="#FFFFFF"></path>
                <path d="M26.0402987,19.6502754 C25.6783919,19.7669803 25.3289752,19.8220052 24.9595125,19.8216806 C23.7805011,19.820869 23.1664776,19.1724184 23.1664776,17.9316783 C23.1664776,16.4830121 23.947962,15.4165989 25.0085481,15.4165989 C25.8774638,15.4165989 26.431812,16.0135955 26.431812,16.9506432 C26.431812,17.2611528 26.393262,17.5641959 26.3022841,17.992222 L24.2051673,17.992222 C24.1340812,18.606911 24.5080156,18.8633696 25.1203429,18.8633696 C25.4970529,18.8633696 25.8370634,18.7812379 26.2154697,18.5961982 L26.0402987,19.6502754 L26.0402987,19.6502754 Z M25.4483258,17.137793 C25.4540312,17.0491687 25.5599664,16.3815649 24.9582789,16.3815649 C24.6230486,16.3815649 24.3829596,16.651171 24.2853511,17.137793 L25.4483258,17.137793 L25.4483258,17.137793 Z" id="Fill-349" fill="#FFFFFF"></path>
                <path d="M18.7389396,16.8508191 C18.7389396,17.387272 18.9859676,17.7560529 19.545867,18.0340995 C19.9746965,18.2464082 20.0411566,18.3092243 20.0411566,18.5017305 C20.0411566,18.7658179 19.8519535,18.8849576 19.4326843,18.8849576 C19.116729,18.8849576 18.82267,18.8333412 18.4834305,18.7182595 C18.4834305,18.7182595 18.3446508,19.6518985 18.3381744,19.695886 C18.578726,19.751398 18.7935263,19.8020404 19.4402401,19.8216806 C20.5581885,19.8216806 21.0744493,19.373852 21.0744493,18.4056397 C21.0744493,17.8232516 20.8582612,17.4817396 20.3276598,17.2252811 C19.8835645,17.010213 19.8325243,16.9626545 19.8325243,16.7646295 C19.8325243,16.5356023 20.0086205,16.4177612 20.3510982,16.4177612 C20.5586511,16.4177612 20.8428412,16.4421086 21.112074,16.4820382 L21.2628814,15.4995422 C20.98856,15.4539315 20.5728374,15.4165989 20.3305896,15.4165989 C19.1454102,15.4165989 18.735393,16.0681335 18.7389396,16.8508191" id="Fill-350" fill="#FFFFFF"></path>
                <path d="M40.398302,19.7481516 L39.3963119,19.7481516 L39.4459643,19.3538872 C39.1552977,19.6806284 38.8575379,19.8216806 38.4692629,19.8216806 C37.6994976,19.8216806 37.1901758,19.1233991 37.1901758,18.0634786 C37.1901758,16.654255 37.9798328,15.4664298 38.9138208,15.4664298 C39.324609,15.4664298 39.63563,15.6430291 39.9253713,16.0442731 L40.1603718,14.5387964 L41.2050752,14.5387964 L40.398302,19.7481516 L40.398302,19.7481516 Z M38.8354874,18.7692266 C39.3290808,18.7692266 39.6754135,18.1808327 39.6754135,17.3416613 C39.6754135,16.8032606 39.478192,16.510768 39.1141263,16.510768 C38.6336399,16.510768 38.29255,17.101272 38.29255,17.9344377 C38.29255,18.4889076 38.4752767,18.7692266 38.8354874,18.7692266 L38.8354874,18.7692266 Z" id="Fill-351" fill="#FFFFFF"></path>
                <path d="M35.7457865,15.5115535 C35.6133289,16.8229008 35.3777117,18.1509666 35.193443,19.4632879 L35.1451784,19.7481516 L36.2046851,19.7481516 C36.5837081,17.1572709 36.6748402,16.6516579 37.2694345,16.7147987 C37.3639589,16.1845138 37.5402093,15.720129 37.6714333,15.48607 C37.2278005,15.3886806 36.9800015,15.6526057 36.6552568,16.1541608 C36.6811624,15.9371449 36.7278849,15.7266216 36.7190955,15.5115535 L35.7457865,15.5115535" id="Fill-352" fill="#FFFFFF"></path>
                <path d="M27.0259437,15.5115535 C26.8928693,16.8229008 26.6569436,18.1509666 26.4729833,19.4632879 L26.424873,19.7481516 L27.484688,19.7481516 C27.8638652,17.1572709 27.9546889,16.6516579 28.548358,16.7147987 C28.6434993,16.1845138 28.820058,15.720129 28.9509736,15.48607 C28.5078035,15.3886806 28.2595418,15.6526057 27.9354139,16.1541608 C27.9610111,15.9371449 28.008042,15.7266216 27.99879,15.5115535 L27.0259437,15.5115535" id="Fill-353" fill="#FFFFFF"></path>
            </g>
        </g>
    </g>
</svg>