<svg width="43" height="32" viewBox="0 0 43 32" fill="none" xmlns="http://www.w3.org/2000/svg">
<g clip-path="url(#clip0)">
<rect x="0.25" y="0.25" width="42.1667" height="31.5" rx="1.75" fill="white" stroke="#E0E7EB" stroke-width="0.5"/>
<path d="M20.3466 22.6204V25.4025C20.3466 25.6485 20.4443 25.8844 20.6182 26.0583C20.7921 26.2322 21.028 26.3299 21.274 26.3299H28.6931C28.9391 26.3299 29.175 26.2322 29.3489 26.0583C29.5228 25.8844 29.6205 25.6485 29.6205 25.4025V24.4752" stroke="black" stroke-width="0.5" stroke-linecap="round" stroke-linejoin="round"/>
<path d="M20.3466 11.9552V10.5641C20.3466 10.3182 20.4443 10.0823 20.6182 9.90835C20.7921 9.73443 21.028 9.63672 21.274 9.63672H28.6931C28.9391 9.63672 29.175 9.73443 29.3489 9.90835C29.5228 10.0823 29.6205 10.3182 29.6205 10.5641V12.4189" stroke="black" stroke-width="0.5" stroke-linecap="round" stroke-linejoin="round"/>
<path d="M20.3466 25.4026L18.5029 24.1711C17.8935 23.7647 17.1774 23.5479 16.445 23.5479H12" stroke="black" stroke-width="0.5" stroke-linecap="round" stroke-linejoin="round"/>
<path d="M12 16.1286H15.7374C15.8748 16.1286 16.0105 16.098 16.1346 16.0392C16.2587 15.9803 16.3682 15.8946 16.4552 15.7882L20.3466 11.9553L24.0302 12.6917C24.1532 12.7163 24.27 12.7656 24.3734 12.8367C24.4768 12.9078 24.5648 12.9991 24.6319 13.1051C24.699 13.2111 24.7439 13.3297 24.7638 13.4536C24.7838 13.5775 24.7784 13.7041 24.748 13.8259L24.671 14.1328C24.6262 14.3116 24.5291 14.473 24.3922 14.5964C24.2553 14.7198 24.0847 14.7996 23.9022 14.8256L22.0706 15.0871C21.8495 15.1186 21.6472 15.2288 21.5009 15.3975C21.3545 15.5661 21.2739 15.7819 21.2739 16.0053V18.4647C21.274 18.6038 21.2428 18.7411 21.1826 18.8665C21.1224 18.9918 21.0347 19.1021 20.9262 19.189L18.9555 20.7656" stroke="black" stroke-width="0.5" stroke-linecap="round" stroke-linejoin="round"/>
<path d="M20.3503 22.6204H26.3783" stroke="black" stroke-width="0.5" stroke-linecap="round" stroke-linejoin="round"/>
<path d="M28.3305 6.01357C27.3407 5.35271 26.1773 5 24.9872 5C23.7971 5 22.6337 5.35271 21.644 6.01357" stroke="black" stroke-width="0.5" stroke-linecap="round" stroke-linejoin="round"/>
<path d="M27.302 7.55686C26.6168 7.09907 25.8112 6.85474 24.9872 6.85474C24.1632 6.85474 23.3576 7.09907 22.6724 7.55686" stroke="black" stroke-width="0.5" stroke-linecap="round" stroke-linejoin="round"/>
<path d="M25.2191 24.0115C25.2649 24.0115 25.3098 24.0251 25.3479 24.0505C25.386 24.076 25.4157 24.1122 25.4333 24.1546C25.4508 24.197 25.4554 24.2436 25.4465 24.2886C25.4375 24.3335 25.4155 24.3748 25.383 24.4073C25.3506 24.4397 25.3093 24.4618 25.2643 24.4707C25.2193 24.4797 25.1727 24.4751 25.1304 24.4575C25.088 24.44 25.0518 24.4103 25.0263 24.3721C25.0008 24.334 24.9872 24.2892 24.9872 24.2433C24.9872 24.1818 25.0117 24.1229 25.0552 24.0794C25.0986 24.0359 25.1576 24.0115 25.2191 24.0115Z" stroke="black" stroke-width="0.5" stroke-linecap="round" stroke-linejoin="round"/>
<path d="M31.4753 21.6931C31.4753 21.939 31.3776 22.1749 31.2037 22.3488C31.0297 22.5228 30.7939 22.6205 30.5479 22.6205H29.1568C28.4826 22.6205 28.0588 22.5732 27.7657 21.6931C27.3233 19.5503 27.0136 17.3823 26.8383 15.2013C26.8383 14.7376 27.302 14.2739 28.2294 14.2739H30.5479C30.7939 14.2739 31.0297 14.3716 31.2037 14.5456C31.3776 14.7195 31.4753 14.9554 31.4753 15.2013V21.6931Z" stroke="black" stroke-width="0.5" stroke-linecap="round" stroke-linejoin="round"/>
</g>
<defs>
<clipPath id="clip0">
<rect width="42.6667" height="32" fill="white"/>
</clipPath>
</defs>
</svg>
