
<svg width="18px" height="14px" viewBox="0 0 18 14" version="1.1" xmlns="http://www.w3.org/2000/svg" xmlns:xlink="http://www.w3.org/1999/xlink">
    <g id="Assets" stroke="none" stroke-width="1" fill="none" fill-rule="evenodd">
        <path d="M4.4408921e-16,5.38527993 L0,3.38527993 L0.000612492523,2.20950056 C0.000612492523,1.10493106 0.896042993,0.209500561 2.00061249,0.209500561 L16.0007842,0.209500561 C17.1053537,0.209500561 18.0007842,1.10493106 18.0007842,2.20950056 L18.0007842,11.9239171 C18.0007842,13.0284866 17.1053537,13.9239171 16.0007842,13.9239171 L2.00061249,13.9239171 C0.896042993,13.9239171 0.000612492523,13.0284866 0.000612492523,11.9239171 L0.000612492523,5.38527993 Z M17.0007842,3.38527993 L17.0007842,2.20950056 C17.0007842,1.65721581 16.553069,1.20950056 16.0007842,1.20950056 L2.00061249,1.20950056 C1.44832774,1.20950056 1.00061249,1.65721581 1.00061249,2.20950056 L1.00061249,3.38527993 L17.0007842,3.38527993 Z M17.0007842,5.38527993 L1.00061249,5.38527993 L1.00061249,11.9239171 C1.00061249,12.4762019 1.44832774,12.9239171 2.00061249,12.9239171 L16.0007842,12.9239171 C16.553069,12.9239171 17.0007842,12.4762019 17.0007842,11.9239171 L17.0007842,5.38527993 Z M12.2647463,11.6226381 C11.7124615,11.6226381 11.2647463,11.1749228 11.2647463,10.6226381 C11.2647463,10.0703533 11.7124615,9.6226381 12.2647463,9.6226381 L14.8361994,9.6226381 C15.3884841,9.6226381 15.8361994,10.0703533 15.8361994,10.6226381 C15.8361994,11.1749228 15.3884841,11.6226381 14.8361994,11.6226381 L12.2647463,11.6226381 Z" id="Combined-Shape"
        fill="#333333" fill-rule="nonzero"></path>
    </g>
</svg>