
<svg width="16px" height="16px" viewBox="0 0 16 16" version="1.1" xmlns="http://www.w3.org/2000/svg" xmlns:xlink="http://www.w3.org/1999/xlink">
    <g id="Assets" stroke="none" stroke-width="1" fill="none" fill-rule="evenodd">
        <path d="M5.52759673,10.4003982 C4.94519234,11.0284097 4.11293994,11.4214408 3.18889021,11.4214408 C1.42771478,11.4214408 0,9.99372604 0,8.23255061 C0,6.47137518 1.42771478,5.0436604 3.18889021,5.0436604 C3.97997989,5.0436604 4.70378883,5.33172352 5.26114538,5.80867812 L8.88053113,3.68061484 C8.88045854,3.67174894 8.88042222,3.66287442 8.88042222,3.65399143 C8.88042222,1.892816 10.308137,0.465101221 12.0693124,0.465101221 C13.8304879,0.465101221 15.2582026,1.892816 15.2582026,3.65399143 C15.2582026,5.41516686 13.8304879,6.84288164 12.0693124,6.84288164 C10.8576803,6.84288164 9.80387509,6.16714455 9.2642023,5.17197596 L6.13563027,7.01145915 C6.29165996,7.38756765 6.37778042,7.80000188 6.37778042,8.23255061 C6.37778042,8.53732578 6.33502458,8.83211478 6.25518378,9.11124677 L9.45102905,10.9902841 C10.0271773,10.1633532 10.9850506,9.62221958 12.0693124,9.62221958 C13.8304879,9.62221958 15.2582026,11.0499344 15.2582026,12.8111098 C15.2582026,14.5722852 13.8304879,16 12.0693124,16 C10.308137,16 8.88042222,14.5722852 8.88042222,12.8111098 C8.88042222,12.6676937 8.88988965,12.5264888 8.90823362,12.3880861 L5.52759673,10.4003982 Z M12.0693124,5.36281127 C13.0130676,5.36281127 13.7781323,4.59774657 13.7781323,3.65399143 C13.7781323,2.71023629 13.0130676,1.94517159 12.0693124,1.94517159 C11.1255573,1.94517159 10.3604926,2.71023629 10.3604926,3.65399143 C10.3604926,4.59774657 11.1255573,5.36281127 12.0693124,5.36281127 Z M3.18889021,9.94137045 C4.13264534,9.94137045 4.89771005,9.17630575 4.89771005,8.23255061 C4.89771005,7.28879547 4.13264534,6.52373077 3.18889021,6.52373077 C2.24513507,6.52373077 1.48007037,7.28879547 1.48007037,8.23255061 C1.48007037,9.17630575 2.24513507,9.94137045 3.18889021,9.94137045 Z M12.0693124,14.5199296 C13.0130676,14.5199296 13.7781323,13.7548649 13.7781323,12.8111098 C13.7781323,11.8673547 13.0130676,11.10229 12.0693124,11.10229 C11.1255573,11.10229 10.3604926,11.8673547 10.3604926,12.8111098 C10.3604926,13.7548649 11.1255573,14.5199296 12.0693124,14.5199296 Z" id="Combined-Shape"
        fill="#333333" fill-rule="nonzero"></path>
    </g>
</svg>