
<svg width="16px" height="18px" viewBox="0 0 16 18" version="1.1" xmlns="http://www.w3.org/2000/svg" xmlns:xlink="http://www.w3.org/1999/xlink">
    <g id="Assets" stroke="none" stroke-width="1" fill="none" fill-rule="evenodd">
        <path d="M10.2113894,10.7646881 C9.82646529,11.3078232 9.42552611,11.8311654 9.02455296,12.3233214 C8.84495297,12.5437631 8.67802878,12.742251 8.52797211,12.9157541 C8.43728901,13.0206064 8.37190952,13.0943406 8.33603087,13.1339107 L8.27031979,13.2063824 L8.27310601,13.2063824 L11.1230472,13.2063824 L10.5855912,10.7646881 L10.2113894,10.7646881 Z M10.9296012,9.69529021 L12.6886368,9.69529021 C13.5791646,9.69529021 14.136014,10.199564 14.5347286,11.0518156 C14.619434,11.2328731 14.8233537,11.74589 14.8496705,11.8072631 L15.9579529,14.7387083 L15.9925038,14.9277978 C16.2981381,16.1152086 15.0179568,17.2288602 13.7994631,17.2288602 L2.15433424,17.2288602 C0.934986884,17.2288602 -0.192949333,16.1462454 0.0278400158,15.0176359 L0.164729056,14.4029062 L1.10249729,11.8116306 C1.11531043,11.7768251 1.19463747,11.5546442 1.22131214,11.4825849 C1.27724842,11.3314779 1.32941605,11.2022102 1.38714557,11.0760107 C1.77997735,10.2172618 2.36147368,9.69529022 3.2665876,9.69529027 L5.10807082,9.69529021 L5.11902808,9.71162279 C4.65513657,8.98025239 4.26297089,8.26651506 3.96016056,7.5818871 C3.51887981,6.58418951 3.27915687,5.67504026 3.27915687,4.86896712 C3.27915687,2.25747805 5.39921953,0.145569475 8.01913997,0.145569475 C10.6390605,0.145569475 12.7591232,2.25747805 12.7591232,4.86896712 C12.7591232,5.67504026 12.5194002,6.58418951 12.0781195,7.5818871 C11.7775636,8.26141789 11.388978,8.96962622 10.9296012,9.69529021 Z M5.80020633,10.7269679 L5.82551214,10.7646881 L5.64332625,10.7646881 L5.20219573,13.2063824 L7.76172047,13.2063824 L7.76796015,13.2063824 L7.70224908,13.1339106 C7.66637043,13.0943406 7.60099094,13.0206064 7.51030784,12.9157541 C7.36025117,12.742251 7.19332698,12.5437631 7.01372699,12.3233214 C6.60347926,11.8197818 6.19326708,11.2835965 5.80020633,10.7269679 Z M14.4595019,13.7177679 L11.7527007,13.7177679 L12.2643578,16.1594623 L13.7994631,16.1594623 C14.384594,16.1594623 15.0805611,15.6099979 14.9201641,15.0176359 C14.8558013,14.7799379 14.7022473,14.3466485 14.4595019,13.7177679 Z M14.2595128,13.2063824 C14.1416048,12.9082313 14.0087049,12.5772037 13.860813,12.2132996 C13.8327327,12.1500441 13.6341405,11.65043 13.5660931,11.5049789 C13.3243196,10.9881884 13.077517,10.7646881 12.6886368,10.7646881 L11.1090825,10.7646881 L11.6455399,13.2063824 L14.2595128,13.2063824 Z M5.15753633,10.7646881 L3.26658758,10.7646881 C2.86144004,10.7646881 2.59691725,11.0021331 2.35962388,11.5208676 C2.31437995,11.619773 2.27164795,11.7256599 2.22420195,11.8538311 C2.20029672,11.9184091 2.12140192,12.1393793 2.10442298,12.185442 C1.94334333,12.559083 1.80333527,12.8993965 1.68439881,13.2063824 L4.67970303,13.2063824 L5.15753633,10.7646881 Z M1.49489398,13.7177679 C1.26984723,14.3585337 1.16577468,14.8079624 1.18267634,15.066054 C1.22488972,15.7106602 1.56825038,16.1594623 2.15433424,16.1594623 L4.06088509,16.1594623 L4.57254219,13.7177679 L1.49489398,13.7177679 Z M4.58337778,16.1594623 L7.76172047,16.1594623 L7.76172047,13.7177679 L5.09503488,13.7177679 L4.58337778,16.1594623 Z M8.27310601,16.1594623 L11.7418651,16.1594623 L11.230208,13.7177679 L8.27310601,13.7177679 L8.27310601,16.1594623 Z M8.361297,11.7829483 C8.85915239,11.1718787 9.35706332,10.5111414 9.82108321,9.82604277 C10.430707,8.92596841 10.9343808,8.05277638 11.2957153,7.23583043 C11.6928408,6.33796391 11.9036049,5.5386413 11.9036049,4.86896712 C11.9036049,2.73070734 10.1673072,1.00108775 8.01913997,1.00108775 C5.87097279,1.00108775 4.13467515,2.73070733 4.13467515,4.86896712 C4.13467515,5.5386413 4.34543918,6.33796391 4.74256474,7.23583043 C5.1038992,8.05277639 5.60757298,8.92596841 6.21719678,9.82604278 C6.68121665,10.5111414 7.17912758,11.1718787 7.67698296,11.7829484 C7.80412916,11.9390081 7.9190559,12.077081 8.01913998,12.1952414 C8.11922406,12.077081 8.23415079,11.9390081 8.361297,11.7829483 Z M8.01913998,7.31978461 C6.66222346,7.31978461 5.56051147,6.22230997 5.56051147,4.86896712 C5.56051147,3.51562428 6.66222346,2.41814964 8.01913998,2.41814964 C9.37605654,2.41814964 10.4777685,3.51562427 10.4777685,4.86896712 C10.4777685,6.22230998 9.37605654,7.31978461 8.01913998,7.31978461 Z M8.01913998,6.46426634 C8.90430328,6.46426634 9.62225026,5.7490807 9.62225026,4.86896712 C9.62225026,3.98885355 8.90430328,3.27366791 8.01913998,3.27366791 C7.13397672,3.27366791 6.41602974,3.98885356 6.41602974,4.86896712 C6.41602974,5.74908069 7.13397672,6.46426634 8.01913998,6.46426634 Z" id="locations-icn"
        fill="#333333" fill-rule="nonzero"></path>
    </g>
</svg>