<?xml version="1.0" encoding="UTF-8"?>
<svg width="54px" height="36px" viewBox="0 0 54 36" version="1.1" xmlns="http://www.w3.org/2000/svg" xmlns:xlink="http://www.w3.org/1999/xlink">
    <!-- Generator: Sketch 53.2 (72643) - https://sketchapp.com -->
    <title>Visa electron Copy 2</title>
    <desc>Created with Sketch.</desc>
    <defs>
        <rect id="path-1" x="0.962381325" y="0.910908312" width="50" height="32" rx="2"></rect>
        <filter x="-6.0%" y="-9.4%" width="112.0%" height="118.8%" filterUnits="objectBoundingBox" id="filter-2">
            <feOffset dx="0" dy="0" in="SourceAlpha" result="shadowOffsetOuter1"></feOffset>
            <feGaussianBlur stdDeviation="1" in="shadowOffsetOuter1" result="shadowBlurOuter1"></feGaussianBlur>
            <feColorMatrix values="0 0 0 0 0   0 0 0 0 0   0 0 0 0 0  0 0 0 0.07 0" type="matrix" in="shadowBlurOuter1"></feColorMatrix>
        </filter>
        <polygon id="path-3" points="16.0360307 0.0988596516 0 0.0988596516 0 10.4563433 32.0720614 10.4563433 32.0720614 0.0988596516"></polygon>
    </defs>
    <g id="Page-1" stroke="none" stroke-width="1" fill="none" fill-rule="evenodd">
        <g id="Visa-electron-Copy-2" transform="translate(1.000000, 1.000000)">
            <g id="Visa-electron-Copy">
                <g id="Rectangle">
                    <use fill="black" fill-opacity="1" filter="url(#filter-2)" xlink:href="#path-1"></use>
                    <use fill="#FFFFFF" fill-rule="evenodd" xlink:href="#path-1"></use>
                </g>
                <g id="Electron" transform="translate(25.298642, 21.056847)" fill="#1A1F71">
                    <polygon id="Fill-4" points="2.38424437 1.97005062 1.33128956 1.97005062 1.33128956 2.95024296 2.5092012 2.95024296 2.5092012 3.24483145 0.976323698 3.24483145 0.976323698 0.525638124 2.44882383 0.525638124 2.44882383 0.820447778 1.33128956 0.820447778 1.33128956 1.67944305 2.38424437 1.67944305"></polygon>
                    <polygon id="Fill-6" points="3.05317257 3.24474298 3.40813843 3.24474298 3.40813843 0.380688201 3.05317257 0.380688201"></polygon>
                    <path d="M4.30329377,2.33297833 C4.31125563,2.81312219 4.61402713,3.01084149 4.97275276,3.01084149 C5.22708967,3.01084149 5.38433623,2.96638782 5.51349515,2.90999138 L5.57807461,3.16410712 C5.45289661,3.22050357 5.23527268,3.28906395 4.92431816,3.28906395 C4.32364073,3.28906395 3.96469394,2.88986558 3.96469394,2.30090976 C3.96469394,1.71195394 4.31125563,1.25193588 4.88008566,1.25193588 C5.521457,1.25193588 5.68710773,1.80882313 5.68710773,2.16776992 C5.68710773,2.24031123 5.68290565,2.29272675 5.67472263,2.33297833 L4.30329377,2.33297833 Z M5.34408465,2.07886258 C5.34806557,1.85703656 5.25119638,1.50605163 4.85199802,1.50605163 C4.48884914,1.50605163 4.33536234,1.83292985 4.3072747,2.07886258 L5.34408465,2.07886258 Z" id="Fill-8"></path>
                    <path d="M7.61840954,3.17616048 C7.52574244,3.22061415 7.31984012,3.28917454 7.05776252,3.28917454 C6.4688067,3.28917454 6.08553203,2.88997617 6.08553203,2.29283733 C6.08553203,1.69171757 6.49689434,1.25204646 7.13428476,1.25204646 C7.34394684,1.25204646 7.5295022,1.30424082 7.62637139,1.3568775 L7.54586823,1.62713811 C7.46094182,1.58268444 7.32780197,1.53424985 7.13428476,1.53424985 C6.68643063,1.53424985 6.44469999,1.86908992 6.44469999,2.27271154 C6.44469999,2.72432543 6.73508639,3.00276906 7.12212082,3.00276906 C7.32404221,3.00276906 7.45696089,2.95433446 7.55781101,2.90988079 L7.61840954,3.17616048 Z" id="Fill-9"></path>
                    <path d="M8.61410537,0.824362355 L8.61410537,1.29234227 L9.12211571,1.29234227 L9.12211571,1.56238172 L8.61410537,1.56238172 L8.61410537,2.61533653 C8.61410537,2.85773067 8.68266576,2.99463028 8.88038506,2.99463028 C8.97703309,2.99463028 9.03365069,2.98666842 9.08606621,2.9703024 L9.10221108,3.24078417 C9.03365069,3.26489089 8.92483873,3.28921877 8.7874968,3.28921877 C8.62206722,3.28921877 8.48892738,3.23260116 8.40444329,3.13993406 C8.3075741,3.03090093 8.26710136,2.85773067 8.26710136,2.62772164 L8.26710136,1.56238172 L7.96455102,1.56238172 L7.96455102,1.29234227 L8.26710136,1.29234227 L8.26710136,0.929193395 L8.61410537,0.824362355 Z" id="Fill-10"></path>
                    <path d="M9.61802845,1.90146812 C9.61802845,1.67145908 9.61382636,1.47396094 9.60188359,1.29216534 L9.91239578,1.29216534 L9.92876181,1.67942093 L9.94048342,1.67942093 C10.0293908,1.41734333 10.2470147,1.25191376 10.4849856,1.25191376 C10.5214774,1.25191376 10.5497862,1.25589469 10.5820759,1.25987561 L10.5820759,1.59493685 C10.5455841,1.58675383 10.5097558,1.58675383 10.4608789,1.58675383 C10.2111864,1.58675383 10.0333717,1.7723092 9.98493709,2.03858889 C9.97697524,2.08702348 9.97299431,2.14740085 9.97299431,2.20423962 L9.97299431,3.24480933 L9.61802845,3.24480933 L9.61802845,1.90146812 Z" id="Fill-11"></path>
                    <path d="M12.7639549,2.25236459 C12.7639549,2.97446025 12.2594831,3.28917454 11.7917244,3.28917454 C11.2671269,3.28917454 10.8559857,2.90169778 10.8559857,2.28465432 C10.8559857,1.63509996 11.2874738,1.25204646 11.8240141,1.25204646 C12.3846611,1.25204646 12.7639549,1.65920668 12.7639549,2.25236459 M11.2189134,2.27271154 C11.2189134,2.70021871 11.4608652,3.02289485 11.8078693,3.02289485 C12.1466903,3.02289485 12.4005848,2.70419964 12.4005848,2.26452853 C12.4005848,1.93366938 12.2353764,1.51810498 11.8158311,1.51810498 C11.4004879,1.51810498 11.2189134,1.90536058 11.2189134,2.27271154" id="Fill-12"></path>
                    <path d="M13.3079041,1.82067744 C13.3079041,1.61499629 13.303702,1.4537688 13.2917593,1.29232016 L13.6062524,1.29232016 L13.6265993,1.61499629 L13.6345612,1.61499629 C13.7314304,1.43342185 13.9572373,1.25206857 14.2799135,1.25206857 C14.5501741,1.25206857 14.9697194,1.41329606 14.9697194,2.08275504 L14.9697194,3.24474298 L14.6147535,3.24474298 L14.6147535,2.11924686 C14.6147535,1.80475374 14.4979797,1.54245498 14.1631396,1.54245498 C13.9331306,1.54245498 13.7515562,1.70788455 13.6871979,1.90538269 C13.6708318,1.94983636 13.66287,2.01021373 13.66287,2.07081227 L13.66287,3.24474298 L13.3079041,3.24474298 L13.3079041,1.82067744 Z" id="Fill-13"></path>
                </g>
                <g id="Visa" transform="translate(8.485669, 9.970479)">
                    <mask id="mask-4" fill="white">
                        <use xlink:href="#path-3"></use>
                    </mask>
                    <g id="Clip-2"></g>
                    <path d="M12.1769436,0.281761065 L7.97817293,10.2990968 L5.23841149,10.2990968 L3.17208996,2.30429242 C3.04691196,1.81309043 2.9381,1.63240064 2.55659463,1.42472903 C1.93357978,1.08612919 0.904510521,0.769645609 -4.42325063e-05,0.572589794 L0.0609966262,0.281761065 L4.47141983,0.281761065 C5.03273033,0.281761065 5.53808672,0.655525743 5.66658215,1.30264731 L6.75846157,7.09975958 L9.4539905,0.281761065 L12.1769436,0.281761065 Z M22.9106247,7.02854525 C22.9214617,4.38521067 19.2556927,4.23857992 19.2795783,3.05735083 C19.2884248,2.69840405 19.6303421,2.31601403 20.3789772,2.21848135 C20.7498668,2.17048908 21.7745128,2.13222797 22.9349526,2.6667778 L23.3889993,0.541405877 C22.7653209,0.316041257 21.9631644,0.0988596516 20.9650579,0.0988596516 C18.40289,0.0988596516 16.6006365,1.45967271 16.586261,3.40988391 C16.5694526,4.85230594 17.8736481,5.65623174 18.8542827,6.13659676 C19.8645532,6.62735642 20.203153,6.94273419 20.1985086,7.38107832 C20.1912102,8.05319126 19.3919288,8.35087602 18.6483804,8.36193415 C17.3450696,8.38250227 16.5893573,8.00962224 15.9866894,7.72896699 L15.5162766,9.9246686 C16.1227043,10.2026699 17.2402386,10.4441794 18.3975821,10.4563433 C21.1211987,10.4563433 22.9026629,9.11123281 22.9106247,7.02854525 L22.9106247,7.02854525 Z M29.6759866,10.2990968 L32.0720614,10.2990968 L29.9785369,0.281761065 L27.7677962,0.281761065 C27.2690747,0.281761065 26.8501929,0.571041656 26.6641952,1.01602067 L22.7754944,10.2990968 L25.4968994,10.2990968 L26.0367571,8.80271108 L29.3619358,8.80271108 L29.6759866,10.2990968 Z M26.7829595,6.75010162 L28.1477535,2.98812696 L28.9315535,6.75010162 L26.7829595,6.75010162 Z M15.8805313,0.281761065 L13.7376876,10.2990968 L11.1458839,10.2990968 L13.2887276,0.281761065 L15.8805313,0.281761065 Z" id="Fill-1" fill="#1A1F71" mask="url(#mask-4)"></path>
                </g>
            </g>
        </g>
    </g>
</svg>